<?xml version="1.0" standalone="no"?>
<!DOCTYPE svg PUBLIC "-//W3C//DTD SVG 1.1//EN" "http://www.w3.org/Graphics/SVG/1.1/DTD/svg11.dtd" >
<!--
2013-9-30: Created.
-->
<svg>
<metadata>
Created by iconfont
</metadata>
<defs>

<font id="iconfont" horiz-adv-x="1024" >
  <font-face
    font-family="iconfont"
    font-weight="500"
    font-stretch="normal"
    units-per-em="1024"
    ascent="896"
    descent="-128"
  />
    <missing-glyph />
    
    <glyph glyph-name="x" unicode="x" horiz-adv-x="1001"
d="M281 543q-27 -1 -53 -1h-83q-18 0 -36.5 -6t-32.5 -18.5t-23 -32t-9 -45.5v-76h912v41q0 16 -0.5 30t-0.5 18q0 13 -5 29t-17 29.5t-31.5 22.5t-49.5 9h-133v-97h-438v97zM955 310v-52q0 -23 0.5 -52t0.5 -58t-10.5 -47.5t-26 -30t-33 -16t-31.5 -4.5q-14 -1 -29.5 -0.5
t-29.5 0.5h-32l-45 128h-439l-44 -128h-29h-34q-20 0 -45 1q-25 0 -41 9.5t-25.5 23t-13.5 29.5t-4 30v167h911zM163 247q-12 0 -21 -8.5t-9 -21.5t9 -21.5t21 -8.5q13 0 22 8.5t9 21.5t-9 21.5t-22 8.5zM316 123q-8 -26 -14 -48q-5 -19 -10.5 -37t-7.5 -25t-3 -15t1 -14.5
t9.5 -10.5t21.5 -4h37h67h81h80h64h36q23 0 34 12t2 38q-5 13 -9.5 30.5t-9.5 34.5q-5 19 -11 39h-368zM336 498v228q0 11 2.5 23t10 21.5t20.5 15.5t34 6h188q31 0 51.5 -14.5t20.5 -52.5v-227h-327z" />
    

    
    <glyph glyph-name="weixin1" unicode="&#59195;" d="M512 384m-415 0a415 415 0 1 1 830 0 415 415 0 1 1-830 0ZM355.6 486.4c0-15 12.2-27.1 27.1-27.1 15 0 27.1 12.2 27.1 27.1 0 15-12.1 27.1-27.1 27.1-15 0-27.1-12.1-27.1-27.1M476.9 487.1c0-9.7 5.2-18.7 13.6-23.5a27.3 27.3 0 0 1 27.1 0c8.4 4.8 13.6 13.8 13.6 23.5s-5.2 18.7-13.6 23.5a27.3 27.3 0 0 1-27.1 0c-8.4-4.8-13.6-13.8-13.6-23.5M544.8 365.79999999999995c0-10.4 8.4-18.8 18.8-18.8s18.8 8.4 18.8 18.8-8.4 18.8-18.8 18.8-18.8-8.4-18.8-18.8M640.5 364.29999999999995c0-6.7 3.6-13 9.4-16.3 5.8-3.4 13-3.4 18.8 0 5.8 3.4 9.4 9.6 9.4 16.3 0 6.7-3.6 13-9.4 16.3-5.8 3.4-13 3.4-18.8 0-5.8-3.4-9.4-9.6-9.4-16.3M696.1 227.10000000000002l12.8-43.8-47.5 26.4c-17.4-4.5-34.7-9.1-52.1-9.1-83 0-147.9 56.6-147.9 126s64.9 126 147.9 126c78.5 0 147.9-56.6 147.9-126 0-38.4-25.6-73.1-61.1-99.5m-255 61.1c-21.9 0-39.2 4.5-61.1 9.1L318.8 267l17.4 52.1c-43.8 30.2-69.4 69.4-69.4 117.7 0 83 78.5 147.9 174.3 147.9 85.3 0 160.7-52.1 175.8-122.2-5.3 0.8-11.3 0.8-16.6 0.8-83 0-147.9-61.9-147.9-138.1 0-12.8 2.3-24.9 5.3-36.2-6.1-0.1-11.3-0.8-16.6-0.8M512 799C282.6 799 97 613.4 97 384s185.6-415 415-415 415 185.6 415 415S741.4 799 512 799"  horiz-adv-x="1024" />

    
    <glyph glyph-name="Excel" unicode="&#58880;" d="M612.8 833.1h-379.3c-32.8 0-59.7-26.9-59.7-59.7v-776.5c0-32.9 26.9-59.7 59.7-59.7h595c32.9 0 59.7 26.9 59.7 59.7v590.5l-275.4 245.7zM137.1 731.7h413.5v-135.6h-413.5zM298.4 620.2l-8 16c-3.3 6.2-5.4 10.8-7.9 15.9h-0.3c-1.8-5.1-4.1-9.7-6.8-15.9l-7.3-16h-22.8l25.6 44.7-24.7 43.7h23l7.7-16.1c2.6-5.4 4.6-9.7 6.7-14.7h0.3c2.1 5.6 3.8 9.6 6 14.7l7.5 16.1h22.8l-24.9-43.2 26.2-45.3h-23.1zM332.2 708.6h20.1v-71.6h35.2v-16.8h-55.2v88.4zM399.9 640.8c5.4-2.8 13.6-5.5 22.2-5.5 9.2 0 14 3.8 14 9.6 0 5.5-4.2 8.7-14.8 12.5-14.7 5.1-24.3 13.3-24.3 26.1 0 15.1 12.6 26.6 33.5 26.6 10 0 17.3-2.1 22.6-4.5l-4.5-16.1c-3.5 1.7-9.8 4.2-18.5 4.2s-12.9-3.9-12.9-8.5c0-5.6 5-8.1 16.4-12.5 15.6-5.8 23-13.9 23-26.4 0-14.8-11.4-27.6-35.7-27.6-10.1 0-20.1 2.8-25.1 5.5l4.1 16.6zM828.7 32.3c0-20.4-16.7-37.1-37.1-37.1h-521.2c-20.4 0-37.1 16.7-37.1 37.1v434.5c0 20.4 16.7 37.1 37.1 37.1h521.3c20.4 0 37.1-16.7 37.1-37.1v-434.5zM327.5 204.5h100.1v-157.3h-100.1zM470.4 275.9h100.1v-228.8h-100.1zM620.6 347.4h100.1v-300.3h-100.1zM375 236.8l-30.9 29.7 110.7 115 59.4-44.5 91.8 90.2 30.1-30.6-118.2-116.1-58.5 43.9zM570.5 437.6l78.2 0.1v-75.5zM888.2 587.6h-275.2v245.4z"  horiz-adv-x="1024" />

    
    <glyph glyph-name="Txt" unicode="&#58881;" d="M612.3 832.1h-379.1c-32.8 0-59.7-26.9-59.7-59.7v-776.2c0-32.8 26.9-59.7 59.7-59.7h594.7c32.8 0 59.7 26.9 59.7 59.7v590.3l-275.3 245.6zM136.8 730.8h413.3v-135.6h-413.3zM268.5 690.9h-23.7v16.8h67.9v-16.8h-24.1v-71.6h-20.1v71.6zM372.2 619.3l-8 16c-3.3 6.2-5.4 10.8-7.9 15.9h-0.3c-1.8-5.1-4.1-9.7-6.8-15.9l-7.3-16h-22.8l25.6 44.7-24.7 43.7h23l7.7-16.1c2.6-5.4 4.6-9.7 6.7-14.7h0.3c2.1 5.6 3.8 9.6 6 14.7l7.5 16.1h22.8l-24.9-43.1 26.2-45.2h-23.1zM423.9 690.9h-23.7v16.8h67.9v-16.8h-24.1v-71.6h-20.1v71.6zM828.2 31.6c0-20.4-16.7-37.1-37.1-37.1h-521.1c-20.4 0-37.1 16.7-37.1 37.1v434.4c0 20.4 16.7 37.1 37.1 37.1h521c20.4 0 37.1-16.7 37.1-37.1v-434.4zM276.9 452h507.4v-23.4h-507.4zM276.9 356.3h507.4v-23.4h-507.4zM276.9 260.5h507.4v-23.4h-507.4zM276.9 164.8h359.1v-23.4h-359.1zM276.9 69h359.1v-23.4h-359.1zM713 161.7h-38v26.9h108.7v-26.9h-38.6v-114.6h-32.1v114.6zM887.6 586.6h-275.3v245.4z"  horiz-adv-x="1024" />

    
    <glyph glyph-name="Word" unicode="&#58882;" d="M612.6 832.8h-379c-32.8 0-59.7-26.9-59.7-59.7v-776c0-32.8 26.9-59.7 59.7-59.7h594.6c32.8 0 59.7 26.9 59.7 59.7v590.2l-275.3 245.5zM137.2 731.5h413.2v-135.5h-413.2zM251.8 707.3c7.3 1.2 16.9 1.8 27 1.8 16.8 0 27.7-3 36.2-9.4 9.2-6.8 14.9-17.7 14.9-33.3 0-16.9-6.2-28.6-14.7-35.8-9.3-7.7-23.5-11.4-40.8-11.4-10.4 0-17.7 0.7-22.7 1.3v86.8zM271.9 635.2c1.7-0.4 4.5-0.4 6.9-0.4 18.1-0.1 29.9 9.8 29.9 30.9 0.1 18.4-10.6 28.1-27.8 28.1-4.5 0-7.3-0.4-9-0.8v-57.8zM424 665.2c0-29-17.6-46.5-43.4-46.5-26.2 0-41.6 19.8-41.6 45 0 26.5 16.9 46.3 43 46.3 27.2-0.1 42-20.4 42-44.8zM360.1 664c0-17.3 8.1-29.5 21.5-29.5 13.5 0 21.2 12.8 21.2 30 0 15.9-7.6 29.5-21.4 29.5-13.4 0-21.3-12.8-21.3-30zM502 622.6c-3.7-1.8-11.9-3.9-22.7-3.9-30.5 0-46.3 19.1-46.3 44.3 0 30.2 21.5 46.9 48.2 46.9 10.4 0 18.2-2.1 21.8-3.9l-4.1-15.9c-4.1 1.7-9.7 3.3-16.8 3.3-15.9 0-28.2-9.6-28.2-29.2 0-17.7 10.5-28.8 28.3-28.8 6 0 12.7 1.3 16.6 2.9l3.2-15.7zM828.4 32.6c0-20.4-16.7-37.1-37.1-37.1h-520.9c-20.4 0-37.1 16.7-37.1 37.1v434.2c0 20.4 16.7 37.1 37.1 37.1h520.9c20.4 0 37.1-16.7 37.1-37.1v-434.2zM277.3 452.8h507.2v-23.4h-507.2zM277.3 357.1h507.2v-23.4h-507.2zM277.3 261.4h507.2v-23.4h-507.2zM277.3 165.7h273.1v-23.4h-273.1zM277.3 70h273.1v-23.4h-273.1zM638.7 48l-33.6 141.4h34.2l10.7-58.3c3.1-16.8 6.1-35 8.4-49.3h0.4c2.3 15.3 5.7 32.3 9.2 49.7l12 57.9h34l11.3-59.6c3.1-16.6 5.5-31.7 7.6-47.4h0.4c2.1 15.7 5.2 32.3 8.2 49.1l11.5 57.9h32.5l-36.5-141.4h-34.6l-12 60.8c-2.7 14.3-5 27.5-6.7 43.6h-0.4c-2.5-15.9-4.8-29.4-8.2-43.6l-13.4-60.8h-35zM887.8 587.4h-275.2v245.4z"  horiz-adv-x="1024" />

    
    <glyph glyph-name="PDF" unicode="&#58883;" d="M612.4 832.7h-379.4c-32.9 0-59.8-26.9-59.8-59.8v-776.9c0-32.9 26.9-59.8 59.8-59.8h595.3c32.9 0 59.8 26.9 59.8 59.8v591l-275.7 245.7zM136.5 731.4h413.7v-135.7h-413.7zM251.3 707.1c6.2 1.1 14.8 1.8 27 1.8 12.3 0 21.1-2.4 27-7.1 5.6-4.5 9.5-11.8 9.5-20.5s-2.9-16-8.1-21c-6.8-6.4-16.9-9.3-28.7-9.3-2.6 0-5 0.1-6.8 0.4v-31.6h-19.8v87.3zM271.1 666.9c1.7-0.4 3.8-0.5 6.7-0.5 10.6 0 17.2 5.4 17.2 14.4 0 8.1-5.6 13-15.6 13-4.1 0-6.8-0.4-8.3-0.8v-26.1zM327.5 707.1c7.4 1.2 16.9 1.8 27 1.8 16.8 0 27.7-3 36.2-9.5 9.2-6.8 15-17.7 15-33.3 0-16.9-6.2-28.6-14.7-35.8-9.3-7.7-23.5-11.4-40.8-11.4-10.4 0-17.7 0.7-22.7 1.3v86.9zM347.6 634.9c1.7-0.4 4.5-0.4 7-0.4 18.1-0.1 29.9 9.8 29.9 31 0.1 18.4-10.6 28.1-27.8 28.1-4.5 0-7.4-0.4-9.1-0.8v-57.9zM418.9 708.3h54.1v-16.4h-34v-20.2h31.8v-16.3h-31.8v-35.6h-20.1v88.5zM828.5 31.6c0-20.4-16.7-37.1-37.1-37.1h-521.5c-20.4 0-37.1 16.7-37.1 37.1v434.7c0 20.4 16.7 37.1 37.1 37.1h521.5c20.4 0 37.1-16.7 37.1-37.1v-434.7zM276.7 452.3h507.8v-23.4h-507.8zM276.7 356.5h507.8v-23.4h-507.8zM511.1 260.7h273.4v-23.4h-273.4zM511.1 164.8h273.4v-23.4h-273.4zM276.7 260.7h195.3v-215.1h-195.3zM511.1 69h273.4v-23.4h-273.4zM888 587.2h-275.3v245.4z"  horiz-adv-x="1024" />

    
    <glyph glyph-name="xiaoxi" unicode="&#58902;" d="M263.5 276.5V467.3c0 123.2 89.9 225.5 207.5 245.3v44.6c0 23.1 18.4 41.9 41.5 41.9 22.9 0 41.5-18.4 41.5-41.9v-44.5c117.8-19.7 207.5-122 207.5-245.3v-190.8l87.3-45c20.5-10.6 37.2-37.7 37.2-60.7v-35.7c0-23-18.5-41.6-41.2-41.6H180.2c-22.8 0-41.2 18.6-41.2 41.6v35.7c0 23 16.5 50.1 37.2 60.7l87.3 44.9zM844.8 93.5H180.2c-22.7 0-41.2 18.6-41.2 41.6v35.7c0 22.9 16.7 50.1 37.2 60.7l87.3 45V467.3c0 58.8 21 115.9 59.1 160.8 38 44.8 90.7 74.7 148.4 84.4v44.6c0 23.1 18.6 41.9 41.5 41.9 23.3 0 41.5-18.4 41.5-41.9v-44.5c57.7-9.7 110.4-39.6 148.4-84.4 38.1-44.9 59.1-102 59.1-160.9v-190.8l87.3-45c20.5-10.6 37.2-37.8 37.2-60.7v-35.7c0-23-18.5-41.6-41.2-41.6z m-663.8 42h663v35.3c0 7.3-7.8 20-14.4 23.4l-110.1 56.7V467.3c0 48.9-17.4 96.4-49.1 133.7-31.6 37.2-75.4 62.1-123.3 70.1l-34.6 5.8-34.5-5.8c-47.9-8.1-91.7-33-123.3-70.2-31.7-37.3-49.2-84.8-49.2-133.6v-216.4l-110.1-56.7c-6.6-3.4-14.4-16.1-14.4-23.4v-35.3zM595.5 52c0-45.8-37.2-83-83-83s-83 37.2-83 83h166z"  horiz-adv-x="1024" />

    
    <glyph glyph-name="dayincopy1" unicode="&#58903;" d="M262.7 633H197c-55.2 0-100-44.8-100-100v-298c0-55.2 44.8-100 100-100h66v83.1c0 22.9 18.6 41.4 41.7 41.4h331.4L262.7 633zM827 633H321.3l373.5-373.5h24.4c23.2 0 41.7-18.4 41.7-41.4v-24.7l58.3-58.3h7.7c55.2 0 100 44.8 100 100V533c0.1 55.2-44.7 100-99.9 100zM844.4 633h-41.9v82.8c0 46-37.3 83.2-83.2 83.2H304.7c-40.7 0-74.5-29.1-81.8-67.6l40-40v24.4c0 23.1 18.7 41.7 41.7 41.7h414.5c23.1 0 41.7-18.7 41.7-41.7V633H321.3l41.5-41.5h481.5c22.6 0 41.1-18.7 41.1-41.9v-331.3c0-23.1-18.7-41.9-41.1-41.9h-41.9V218c0 46.1-37.3 82.9-83.2 82.9h-65.9l41.5-41.5h24.4c23.2 0 41.7-18.4 41.7-41.4v-24.7l58.3-58.3h25c45.3 0 82.6 37.3 82.6 83.4V549.6c0.2 46-36.8 83.4-82.4 83.4zM849.3 46.39999999999998L174.4 721.3c-0.7 0.7-1.4 1.5-2 2.3-8.1 6.1-19.7 5.4-27-2-8.1-8.1-8.1-21.2 0-29.3l59.3-59.3h-25c-45.3 0-82.6-37.3-82.6-83.4v-331.3c0-45.9 37-83.4 82.6-83.4h41.9v-83.1c0-46.1 37.3-82.9 83.2-82.9h414.5c40.8 0 74.6 29.1 81.8 67.6l19.2-19.2c8.1-8.1 21.2-8.1 29.3 0 7.4 7.4 8 18.9 2 27-0.8 0.7-1.6 1.3-2.3 2.1zM221.5 218.10000000000002v-41.6h-41.9c-22.6 0-41.1 18.7-41.1 41.9V549.6c0 23.1 18.7 41.9 41.1 41.9h66.5L536.7 301h-232c-46 0-83.2-37.1-83.2-82.9zM761 51.89999999999998c0-22.9-18.6-41.4-41.7-41.4H304.7c-23.2 0-41.7 18.4-41.7 41.4V218.10000000000002c0 22.9 18.6 41.4 41.7 41.4h273.4L761 76.70000000000005v-24.8zM263 467m-41.5 0a41.5 41.5 0 1 1 83 0 41.5 41.5 0 1 1-83 0Z"  horiz-adv-x="1024" />

    
    <glyph glyph-name="guanbi" unicode="&#58915;" d="M425.2 384L114.4 73.1c-23.1-23.1-23.2-60.6-0.1-83.7l2.9-2.9c23.1-23.2 60.6-23.3 83.8-0.2l0.1 0.1L512 297.3l310.9-310.9 0.1-0.1c23.2-23.1 60.7-23 83.8 0.2l2.9 2.9c23.1 23.2 23 60.6-0.1 83.7L598.8 384l310.9 310.9c23.1 23.1 23.2 60.6 0.1 83.7l-2.9 2.9c-23.1 23.2-60.6 23.3-83.8 0.2l-0.1-0.1-311-310.8-310.9 310.8-0.1 0.1c-23.2 23.1-60.7 23-83.8-0.2l-2.9-2.9c-23.1-23.2-23-60.6 0.1-83.7L425.2 384z"  horiz-adv-x="1024" />

    
    <glyph glyph-name="quanping" unicode="&#58916;" d="M749.9 695.2h-82.3c-28.6 0-51.9 23.2-51.9 51.9S639 799 667.6 799h207.5c28.6 0 51.9-23.2 51.9-51.9v-207.5c0-28.6-23.2-51.9-51.9-51.9s-51.9 23.2-51.9 51.9v82.3L715 513.7c-20.3-20.3-53.1-20.3-73.4 0s-20.3 53.1 0 73.4l108.3 108.1zM274.1 72.8h82.3c28.6 0 51.9-23.2 51.9-51.9S385-31 356.4-31H148.9c-28.6 0-51.9 23.2-51.9 51.9V228.4c0 28.6 23.2 51.9 51.9 51.9s51.9-23.2 51.9-51.9v-82.3L309 254.3c20.3 20.3 53.1 20.3 73.4 0s20.3-53.1 0-73.4L274.1 72.8z"  horiz-adv-x="1024" />

    
    <glyph glyph-name="zuixiaohua" unicode="&#58917;" d="M156.3 443h711.4c32.7 0 59.3-26.5 59.3-59.3 0-32.7-26.5-59.3-59.3-59.3H156.3c-32.7 0-59.3 26.5-59.3 59.3s26.5 59.3 59.3 59.3z"  horiz-adv-x="1024" />

    
    <glyph glyph-name="dayin" unicode="&#58918;" d="M761 135h66c55.2 0 100 44.8 100 100V533c0 55.2-44.8 100-100 100H197c-55.2 0-100-44.8-100-100v-298c0-55.2 44.8-100 100-100h66v83.1c0 22.9 18.6 41.4 41.7 41.4h414.5c23.2 0 41.7-18.4 41.7-41.4V135zM844.4 633h-41.9v82.8c0 46-37.3 83.2-83.2 83.2H304.7c-46 0-83.2-37.3-83.2-83.2V633h-41.9c-45.3 0-82.6-37.3-82.6-83.4v-331.3c0-45.9 37-83.4 82.6-83.4h41.9v-83.1c0-46.1 37.3-82.9 83.2-82.9h414.5c46 0 83.2 37.1 83.2 82.9V135h41.9c45.3 0 82.6 37.3 82.6 83.4V549.6c0.1 46-36.9 83.4-82.5 83.4zM263 715.8c0 23.1 18.7 41.7 41.7 41.7h414.5c23.1 0 41.7-18.7 41.7-41.7V633H263v82.8z m498-663.9c0-22.9-18.6-41.4-41.7-41.4H304.7c-23.2 0-41.7 18.4-41.7 41.4V218.1c0 22.9 18.6 41.4 41.7 41.4h414.5c23.2 0 41.7-18.4 41.7-41.4v-166.2z m124.5 166.5c0-23.1-18.7-41.9-41.1-41.9h-41.9v41.6c0 46.1-37.3 82.9-83.2 82.9H304.7c-46 0-83.2-37.1-83.2-82.9v-41.6h-41.9c-22.6 0-41.1 18.7-41.1 41.9V549.6c0 23.1 18.7 41.9 41.1 41.9h664.8c22.6 0 41.1-18.7 41.1-41.9v-331.2zM263 467m-41.5 0a41.5 41.5 0 1 1 83 0 41.5 41.5 0 1 1-83 0Z"  horiz-adv-x="1024" />

    
    <glyph glyph-name="right" unicode="&#58644;" d="M286.4 723.9c-17.1 17.1-17.1 44.8 0 61.9s44.8 17.1 61.9 0l402.2-402.2-402.2-402.2c-17.1-17.1-44.8-17.1-61.9 0s-17.1 44.8 0 61.9l340.3 340.3-340.3 340.3z"  horiz-adv-x="1024" />

    
    <glyph glyph-name="jiantoushang" unicode="&#58929;" d="M409.1 384.1v-414.9h209.1V384.1H824L512 799 200 384.1h209.1z"  horiz-adv-x="1024" />

    
    <glyph glyph-name="jiantouxia" unicode="&#58930;" d="M408 384V799h206v-415h209L512.5-31 202 384h206z"  horiz-adv-x="1024" />

    
    <glyph glyph-name="xiangxia" unicode="&#58931;" d="M171.7 600.7c-17.1 16.4-44.8 16.4-61.9 0s-17.1-43 0-59.4L512 155l402.2 386.3c17.1 16.4 17.1 43 0 59.4s-44.8 16.4-61.9 0L512 273.9 171.7 600.7z"  horiz-adv-x="1024" />

    
    <glyph glyph-name="left" unicode="&#58645;" d="M737.6 723.9c17.1 17.1 17.1 44.8 0 61.9s-44.8 17.1-61.9 0L273.6 383.6l402.2-402.2c17.1-17.1 44.8-17.1 61.9 0s17.1 44.8 0 61.9L397.3 383.6l340.3 340.3z"  horiz-adv-x="1024" />

    
    <glyph glyph-name="guanbi1" unicode="&#58934;" d="M584.7 384l327.2 327.2c20.1 20.1 20.1 52.6 0 72.7s-52.6 20.1-72.7 0L512 456.7 184.8 783.9c-20.1 20.1-52.6 20.1-72.7 0s-20.1-52.6 0-72.7L439.3 384 112.1 56.8c-20.1-20.1-20.1-52.6 0-72.7s52.6-20.1 72.7 0L512 311.3l327.2-327.2c20.1-20.1 52.6-20.1 72.7 0s20.1 52.6 0 72.7L584.7 384z"  horiz-adv-x="1024" />

    
    <glyph glyph-name="changyonggongneng" unicode="&#58935;" d="M250.5 228.2l15.9-26.7-14.5-27.5c-7.6-14.4-5-33.7 5.8-44.4 10.6-10.6 30.2-13.3 44.5-5.7l27.5 14.4 26.6-15.9c25.1-15 52.3-26.3 80.8-33.5l30.1-7.6 9.2-29.7c4.8-15.5 20.3-27.3 35.5-27.3 15 0 30.7 11.9 35.5 27.4l9.2 29.6 30 7.6c28.6 7.2 55.8 18.5 81 33.6l26.7 15.9 27.5-14.5c14.4-7.6 33.7-5 44.4 5.8 10.6 10.6 13.3 30.2 5.7 44.5l-14.4 27.5 15.9 26.6c15 25.2 26.3 52.4 33.5 80.9l7.6 30 29.6 9.2c15.5 4.8 27.4 20.5 27.4 35.5 0 15.2-11.8 30.7-27.3 35.5l-29.7 9.2-7.6 30.1c-7.2 28.5-18.5 55.7-33.5 80.8l-15.9 26.6 14.4 27.5c7.5 14.4 4.9 33.9-5.7 44.5-10.8 10.8-30 13.4-44.4 5.8l-27.5-14.5-26.7 15.9c-25.2 15-52.4 26.4-81 33.6l-30 7.6-9.2 29.6c-4.7 15.6-20.4 27.6-35.4 27.6-15.2 0-30.7-11.8-35.5-27.3l-9.2-29.7-30.1-7.6c-28.5-7.2-55.7-18.5-80.8-33.5l-26.6-15.9-27.5 14.4c-14.4 7.5-33.9 4.9-44.5-5.7-10.8-10.8-13.4-30-5.8-44.4l14.5-27.5-15.9-26.7c-15-25.2-26.4-52.4-33.6-81l-7.6-30.1-29.7-9.2c-15.5-4.8-27.3-20.3-27.3-35.5 0-15 11.9-30.7 27.4-35.5l29.6-9.2 7.6-30c7.1-28.6 18.5-55.9 33.5-81.1z m-87.2 67.5C125.2 307.5 97 344.2 97 384c0 40 28 76.5 66.3 88.4 8.5 33.7 21.9 65.9 39.7 95.8-18.7 35.4-12.6 81.1 15.6 109.4 28.1 28.1 74 34.1 109.4 15.6 29.8 17.8 62 31.1 95.6 39.6C435.5 771 472 799 512 799c39.8 0 76.5-28.2 88.3-66.3 33.7-8.5 65.9-21.9 95.8-39.7 35.4 18.7 81.1 12.6 109.4-15.6 28.1-28.1 34.1-74 15.6-109.4 17.8-29.8 31.1-62 39.6-95.6C899 460.5 927 424 927 384c0-39.8-28.2-76.5-66.3-88.3-8.5-33.7-21.8-65.8-39.6-95.7 18.6-35.3 12.5-81.3-15.6-109.4-28.3-28.3-73.9-34.3-109.4-15.6-29.9-17.8-62.1-31.2-95.8-39.7-11.8-38.1-48.5-66.3-88.3-66.3-40 0-76.5 28-88.4 66.3-33.6 8.5-65.8 21.8-95.6 39.6-35.3-18.6-81.3-12.5-109.4 15.6-28.3 28.3-34.3 73.9-15.6 109.4-17.8 29.8-31.2 62.1-39.7 95.8zM514.8 297.6c46.2 0 83.6 37.4 83.6 83.6s-37.4 83.6-83.6 83.6-83.6-37.4-83.6-83.6 37.5-83.6 83.6-83.6z m0-55.7c-76.9 0-139.3 62.4-139.3 139.3s62.4 139.3 139.3 139.3 139.3-62.4 139.3-139.3-62.4-139.3-139.3-139.3zM510.6 303.8c45.1 0 81.6 36.5 81.6 81.6S555.7 467 510.6 467 429 430.5 429 385.4s36.5-81.6 81.6-81.6z"  horiz-adv-x="1024" />

    
    <glyph glyph-name="zuzhijigou" unicode="&#58936;" d="M346 411.7h-55.3c-15.3 0-27.7-12.4-27.7-27.7s12.4-27.7 27.7-27.7H346c15.3 0 27.7 12.4 27.7 27.7s-12.4 27.7-27.7 27.7zM346 245.7h-55.3c-15.3 0-27.7-12.4-27.7-27.7s12.4-27.7 27.7-27.7H346c15.3 0 27.7 12.4 27.7 27.7s-12.4 27.7-27.7 27.7zM346 577.7h-55.3c-15.3 0-27.7-12.4-27.7-27.7 0-15.3 12.4-27.7 27.7-27.7H346c15.3 0 27.7 12.4 27.7 27.7 0 15.3-12.4 27.7-27.7 27.7zM512 577.7h-55.3c-15.3 0-27.7-12.4-27.7-27.7 0-15.3 12.4-27.7 27.7-27.7H512c15.3 0 27.7 12.4 27.7 27.7 0 15.3-12.4 27.7-27.7 27.7zM899.3 24.3h-27.7v332c0 61.1-49.5 110.7-110.7 110.7H650.3V688.3c0 61.1-49.5 110.7-110.7 110.7H263c-61.1 0-110.7-49.5-110.7-110.7v-664h-27.7c-15.3 0-27.7-12.4-27.7-27.7 0-15.3 12.4-27.7 27.7-27.7h774.7c15.3 0 27.7 12.4 27.7 27.7 0 15.3-12.4 27.7-27.7 27.7z m-304.3 0H207.7v664c0 30.6 24.8 55.3 55.3 55.3h276.7c30.6 0 55.3-24.8 55.3-55.3v-664z m221.3 0h-166V411.7H761c30.6 0 55.3-24.8 55.3-55.3v-332.1zM512 245.7h-55.3c-15.3 0-27.7-12.4-27.7-27.7s12.4-27.7 27.7-27.7H512c15.3 0 27.7 12.4 27.7 27.7s-12.4 27.7-27.7 27.7zM512 411.7h-55.3c-15.3 0-27.7-12.4-27.7-27.7s12.4-27.7 27.7-27.7H512c15.3 0 27.7 12.4 27.7 27.7s-12.4 27.7-27.7 27.7z"  horiz-adv-x="1024" />

    
    <glyph glyph-name="shouye" unicode="&#58919;" d="M208 516.4v-436.8c0-30.8 24.4-55.3 54.9-55.3h498.9c30 0 54.9 24.9 54.9 55.3V516.4L512.3 731.3 208 516.4z m664-39v-397.7c0-61.1-49.8-110.6-110.2-110.6H262.9c-60.9 0-110.2 49.1-110.2 110.6V477.4L138 467H42L512.3 799l470.3-332h-96L872 477.4zM512.3 190.3c-76.4 0-138.3 61.9-138.3 138.3S435.9 467 512.3 467s138.3-61.9 138.3-138.3-61.9-138.4-138.3-138.4z m0 55.4c45.8 0 83 37.2 83 83s-37.2 83-83 83-83-37.2-83-83c0-45.9 37.2-83 83-83z"  horiz-adv-x="1024" />

    
    <glyph glyph-name="gonggaoguanli1" unicode="&#58937;" d="M512-31c50.9 0 92.2 39.6 92.2 88.5H419.8c0-48.9 41.3-88.5 92.2-88.5zM899.3 173.3c0 20.1-15.9 45.9-33.8 54.8L761 279.8V489c0 122-87.8 225.7-207.4 245.7l-13.9 2.3v34.3c0 15.3-12.4 27.7-27.7 27.7-15.3 0-27.7-12.4-27.7-27.7V737l-13.9-2.3C351.1 714.6 263 610.6 263 489v-209.2l-104.5-51.7c-17.6-8.7-33.8-35-33.8-54.8v-38.7h774.7c-0.1 22.1-0.1 35-0.1 38.7z m-703.6 11.4l122.7 60.7V489c0 94.5 68.6 175.5 161.3 191.1l31.5 5.3c0.5 0.1 1.1 0.1 1.7 0l31.6-5.3c93-15.5 161.2-96.1 161.2-191.1v-243.6l122.6-60.6-632.6-0.1z"  horiz-adv-x="1024" />

    
    <glyph glyph-name="dingjiazhongxin1" unicode="&#58938;" d="M512 24.3c198.6 0 359.7 161 359.7 359.7S710.6 743.7 512 743.7 152.3 582.6 152.3 384 313.4 24.3 512 24.3z m0-55.3C282.8-31 97 154.8 97 384S282.8 799 512 799s415-185.8 415-415-185.8-415-415-415zM484.3 411.7h-83c-15.2 0-27.7 12.4-27.7 27.7 0 15.3 12.4 27.7 27.7 27.7h59.9L398 530.3c-10.8 10.8-10.8 28.3 0 39.1s28.4 10.8 39.1 0l74.9-74.9 74.9 74.9c10.8 10.8 28.3 10.8 39.1 0s10.8-28.3 0-39.1L562.7 467h59.9c15.2 0 27.7-12.4 27.7-27.7 0-15.2-12.5-27.7-27.7-27.7h-83v-55.3h83c15.2 0 27.7-12.5 27.7-27.7s-12.5-27.7-27.7-27.7h-83v-83c0-15.2-12.4-27.7-27.7-27.7-15.3 0-27.7 12.4-27.7 27.7v83h-83c-15.2 0-27.7 12.5-27.7 27.7 0 15.3 12.4 27.7 27.7 27.7h83v55.4z"  horiz-adv-x="1024" />

    
    <glyph glyph-name="shouhouguanli1" unicode="&#58939;" d="M401.3 301h221.3c15.3 0 27.7-12.4 27.7-27.7 0-15.3-12.4-27.7-27.7-27.7H401.3c-15.3 0-27.7 12.4-27.7 27.7 0.1 15.3 12.5 27.7 27.7 27.7zM266 674.5l-93.7-77.8V265L295 163.8c14.6-10.4 23.3-27.2 23.3-45.1v-94.4h387.3v93.3c0 17.9 8.6 34.6 23.1 45l122.9 102.1v332L760 673.9v-95c0-19.4-10.2-37.5-26.9-47.5L540.5 415.9c-17.6-10.5-39.6-10.5-57.1 0.1L292.7 531.5c-16.5 10-26.7 28-26.7 47.3v95.7z m495-650.2c0-30.6-24.8-55.3-55.3-55.3H318.3c-30.6 0-55.3 24.8-55.3 55.3v94.4L117 236.3V623.7L321.3 799v-220.1L512 463.3l192.7 115.5V799L907 623.7v-387.3L761 117.6v-93.3z"  horiz-adv-x="1024" />

    
    <glyph glyph-name="cuxiaozhongxin1" unicode="&#58940;" d="M910.1 315.2L581 644.3l-272.2-3.8c-28.8-0.4-52.4-24.1-52.8-52.8l-0.8-53.5c-5.8 4.2-11.4 8.9-16.8 14.3-41.7 41.7-46.9 99.2-18.3 127.9 24.3 24.3 69.3 24.2 107.8-1.7 1.1-0.9 2.2-1.6 3.3-2.3 0.1 0 0.1-0.1 0.2-0.1 0.1-0.1 0.3-0.2 0.4-0.2 9.8-5.4 22.4-3.9 30.7 4.4 10.1 10.1 10.1 26.4 0 36.5-1 1-2 1.8-3.1 2.6v0.1c-58.3 40.7-132.1 41.2-175.9-2.7-50.4-50.4-42.3-140.4 18.3-200.9 15.9-15.9 33.8-28.2 52.5-36.7l-2.2-159.7 329.1-329.1c39.9-39.9 105.4-40.1 145.7 0.2l182.9 182.9c40.4 40 40.5 105.3 0.3 145.5zM873.4 206L690.5 23.1c-20-20-52.9-20-72.7-0.2L304.2 336.6l1.8 124.6c36.5-3.4 71.7 7.2 97 32.5 10.1 10.1 10.1 26.4 0 36.5-10.1 10.1-26.4 10.1-36.5 0-14.5-14.5-36.3-20.3-59.7-17.1l1 73.9c0 0.8 1.1 1.9 1.9 1.9l250.3 3.5 313.7-313.7c19.8-20 19.8-52.6-0.3-72.7z"  horiz-adv-x="1024" />

    
    <glyph glyph-name="shujuzhongxin1" unicode="&#58941;" d="M456.7 743.7c-168.1 0-304.3-136.3-304.3-304.3 0-158.8 121.6-289.1 276.7-303.1V467h330.8c-14.1 155.1-144.5 276.7-303.2 276.7z m27.6-332v-331c-9.1-0.7-18.4-1-27.7-1C258 79.7 97 240.7 97 439.3S258 799 456.7 799s359.7-161 359.7-359.7c0-9.3-0.4-18.5-1-27.7H484.3zM870.4 301H595v-275.4C741 38.7 857.3 155 870.4 301z m-330.7 55.3H926c0.7-9.1 1-18.4 1-27.7C927 130 766-31 567.3-31c-9.3 0-18.5 0.4-27.7 1V356.3z"  horiz-adv-x="1024" />

    
    <glyph glyph-name="jichushezhi1" unicode="&#58942;" d="M250.5 228.2l15.9-26.7-14.5-27.5c-7.6-14.4-5-33.7 5.8-44.4 10.6-10.6 30.2-13.3 44.5-5.7l27.5 14.4 26.6-15.9c25.1-15 52.3-26.3 80.8-33.5l30.1-7.6 9.2-29.7c4.8-15.5 20.3-27.3 35.5-27.3 15 0 30.7 11.9 35.5 27.4l9.2 29.6 30 7.6c28.6 7.2 55.8 18.5 81 33.6l26.7 15.9 27.5-14.5c14.4-7.6 33.7-5 44.4 5.8 10.6 10.6 13.3 30.2 5.7 44.5l-14.4 27.5 15.9 26.6c15 25.2 26.3 52.4 33.5 80.9l7.6 30 29.6 9.2c15.5 4.8 27.4 20.5 27.4 35.5 0 15.2-11.8 30.7-27.3 35.5l-29.7 9.2-7.6 30.1c-7.2 28.5-18.5 55.7-33.5 80.8l-15.9 26.6 14.4 27.5c7.5 14.4 4.9 33.9-5.7 44.5-10.8 10.8-30 13.4-44.4 5.8l-27.5-14.5-26.7 15.9c-25.2 15-52.4 26.4-81 33.6l-30 7.6-9.2 29.6c-4.7 15.6-20.4 27.6-35.4 27.6-15.2 0-30.7-11.8-35.5-27.3l-9.2-29.7-30.1-7.6c-28.5-7.2-55.7-18.5-80.8-33.5l-26.6-15.9-27.5 14.4c-14.4 7.5-33.9 4.9-44.5-5.7-10.8-10.8-13.4-30-5.8-44.4l14.5-27.5-15.9-26.7c-15-25.2-26.4-52.4-33.6-81l-7.6-30.1-29.7-9.2c-15.5-4.8-27.3-20.3-27.3-35.5 0-15 11.9-30.7 27.4-35.5l29.6-9.2 7.6-30c7.1-28.6 18.5-55.9 33.5-81.1z m-87.2 67.5C125.2 307.5 97 344.2 97 384c0 40 28 76.5 66.3 88.4 8.5 33.7 21.9 65.9 39.7 95.8-18.7 35.4-12.6 81.1 15.6 109.4 28.1 28.1 74 34.1 109.4 15.6 29.8 17.8 62 31.1 95.6 39.6C435.5 771 472 799 512 799c39.8 0 76.5-28.2 88.3-66.3 33.7-8.5 65.9-21.9 95.8-39.7 35.4 18.7 81.1 12.6 109.4-15.6 28.1-28.1 34.1-74 15.6-109.4 17.8-29.8 31.1-62 39.6-95.6C899 460.5 927 424 927 384c0-39.8-28.2-76.5-66.3-88.3-8.5-33.7-21.8-65.8-39.6-95.7 18.6-35.3 12.5-81.3-15.6-109.4-28.3-28.3-73.9-34.3-109.4-15.6-29.9-17.8-62.1-31.2-95.8-39.7-11.8-38.1-48.5-66.3-88.3-66.3-40 0-76.5 28-88.4 66.3-33.6 8.5-65.8 21.8-95.6 39.6-35.3-18.6-81.3-12.5-109.4 15.6-28.3 28.3-34.3 73.9-15.6 109.4-17.8 29.8-31.2 62.1-39.7 95.8zM512 301c45.8 0 83 37.2 83 83s-37.2 83-83 83-83-37.2-83-83 37.2-83 83-83z m0-55.3c-76.4 0-138.3 61.9-138.3 138.3S435.6 522.3 512 522.3 650.3 460.4 650.3 384 588.4 245.7 512 245.7z"  horiz-adv-x="1024" />

    
    <glyph glyph-name="yaohuoguanli1" unicode="&#58943;" d="M816.8 744H207.2C146.4 744 97 694.3 97 633.1v-54.8c0-41.3 22.3-77.2 55.3-96.3v-346.8c0-61 49.6-110.5 110.8-110.5h497.7c61.4 0 110.8 49.5 110.8 110.5V482.1c33 19.2 55.3 55.1 55.3 96.2v54.8C927 694.5 877.7 744 816.8 744z m-0.5-608.8c0-30.5-24.7-55.2-55.5-55.2H263.2c-30.6 0-55.5 24.8-55.5 55.2V467.3h608.7v-332.1z m55.4 443.1c0-30.8-24.7-55.6-54.9-55.6H207.2c-30.3 0-54.9 24.7-54.9 55.6v54.8c0 30.8 24.7 55.6 54.9 55.6h609.6c30.3 0 54.9-24.7 54.9-55.6v-54.8zM492.4 152.9L668.5 329c10.8 10.8 10.8 28.3 0 39.1s-28.3 10.8-39.1 0l-137-136.9-97.8 97.8c-10.8 10.8-28.3 10.8-39.1 0s-10.8-28.3 0-39.1l136.9-137z"  horiz-adv-x="1024" />

    
    <glyph glyph-name="lingshouguanli1" unicode="&#58944;" d="M849 72.5l-44.3 519H698.3v25.9C698.3 717.5 615 799 512.2 799c-102.6 0-186.1-81.3-186.1-181.6v-25.9H219.7l-44.3-519C170.5 15.8 214.2-31 273-31h478.3c59 0 102.6 46.3 97.7 103.5zM379.2 617.4c0 71.5 59.6 129.7 132.9 129.7 73.3 0 132.9-58.2 132.9-129.7v-25.9H379.2v25.9z m372.1-596.5H273c-27.5 0-46.9 20.7-44.7 47.3l40.3 471.4H326v-101.4c-0.1-0.8-0.1-1.5-0.1-2.3 0-14.3 11.9-25.9 26.6-25.9s26.6 11.6 26.6 25.9h0.1V539.6h265.9v-101.1c-0.1-0.9-0.1-1.8-0.1-2.7 0-14.3 11.9-25.9 26.6-25.9s26.6 11.6 26.6 25.9h0.1V539.6h57.4L796 68.2c2.3-27-16.9-47.3-44.7-47.3z"  horiz-adv-x="1024" />

    
    <glyph glyph-name="kucunguanli" unicode="&#58945;" d="M982.7 467L512.3 799 42 467h96l14.7 10.4v-397.7c0-61.5 49.3-110.6 110.2-110.6h498.9c60.4 0 110.2 49.5 110.2 110.6V477.4l14.7-10.4h96z m-166-387.4c0-30.4-24.9-55.3-54.9-55.3H262.9c-30.5 0-54.9 24.5-54.9 55.3V516.4l304.3 214.8 304.3-214.8v-436.8zM318.7 245.7h110.7V135H318.7zM540 245.7h110.7V135H540zM318.7 467h110.7v-110.7H318.7z"  horiz-adv-x="1024" />

    
    <glyph glyph-name="huiyuanguanli" unicode="&#58946;" d="M694.2 377.3c32.1 44.4 51.4 100.9 51.4 162.4C745.6 682.9 641.1 799 512.2 799S278.8 682.9 278.8 539.6c0-61.5 19.3-117.9 51.4-162.4C240.9 354 175 272.9 175 176.5 175 62.1 268.1-31 382.8-31h258.7c114.8 0 207.8 92.9 207.8 207.5 0.1 96.2-65.8 177.4-155.1 200.8z m-182 369.8c99 0 181.6-91.8 181.6-207.5s-82.6-207.5-181.6-207.5-181.6 91.8-181.6 207.5 82.6 207.5 181.6 207.5z m129.3-726.2H382.8c-86.1 0-156 69.8-156 155.6 0 71.2 48.3 132.8 116.4 150.6a52.6 52.6 0 0 1 21.5 11.5c40.2-36.5 91.5-58.3 147.5-58.3 55.9 0 107.3 21.9 147.5 58.3 5.9-5.3 13.2-9.4 21.4-11.5 68-17.8 116.4-79.5 116.4-150.6 0-85.9-69.8-155.6-156-155.6z"  horiz-adv-x="1024" />

    
    <glyph glyph-name="shangpinguanli" unicode="&#58947;" d="M423 351.3H176.3c-30.6 0-55.3-24.8-55.3-55.3v-246.7c0-30.6 24.8-55.3 55.3-55.3H423c30.6 0 55.3 24.8 55.3 55.3V296c0 30.6-24.7 55.3-55.3 55.3z m0-302H176.3V296H423v-246.7zM841.3 351H594.7c-30.6 0-55.3-24.8-55.3-55.3V49c0-30.6 24.8-55.3 55.3-55.3h246.7c30.6 0 55.3 24.8 55.3 55.3V295.7c0 30.5-24.8 55.3-55.4 55.3z m0-302H594.7V295.7h246.7V49zM423 769H176.3c-30.6 0-55.3-24.8-55.3-55.3V467c0-30.6 24.8-55.3 55.3-55.3H423c30.6 0 55.3 24.8 55.3 55.3V713.7c0 30.5-24.7 55.3-55.3 55.3z m0-302H176.3V713.7H423V467zM727.8 424.3c96.6 0 174.8 78.3 174.8 174.8S824.4 774 727.8 774 553 695.7 553 599.2s78.3-174.9 174.8-174.9z m0 294.4c66 0 119.5-53.5 119.5-119.5s-53.5-119.5-119.5-119.5-119.5 53.5-119.5 119.5 53.5 119.5 119.5 119.5z"  horiz-adv-x="1024" />

    
    <glyph glyph-name="woshouquandezhekou" unicode="&#58920;" d="M330.2 124h47.3v-47.3h-47.3V124z m94.5 0H472v-47.3h-47.3V124z m94.6 0h47.3v-47.3h-47.3V124z m94.5 0h47.3v-47.3h-47.3V124zM613.8 662.9v52c0 65.3-52.9 118.2-118.2 118.2s-118.2-52.9-118.2-118.2v-52c-84.2-43-141.8-130.6-141.8-231.6v-496.4h520V431.3c0 101-57.6 188.6-141.8 231.6z m-201.8 52c0 46.2 37.4 83.6 83.6 83.6 46.2 0 83.6-37.4 83.6-83.6v-37.4c-26.2 8.9-54.4 13.7-83.6 13.7s-57.4-4.8-83.6-13.7v37.4z m309.1-745.4H270.2V431.3c0 81.2 42.9 152.3 107.3 192v-192c0-65.3 52.9-118.2 118.2-118.2S613.8 366 613.8 431.3s-52.9 118.2-118.2 118.2c-32.7 0-62.2-13.3-83.6-34.7V640.7c25.9 10.3 54.1 16 83.6 16s57.8-5.7 83.6-16v-1.8h4.4C664.4 604.6 721 524.6 721 431.3v-461.8zM495.6 514.9c46.2 0 83.6-37.4 83.6-83.6 0-46.2-37.4-83.6-83.6-83.6-46.2 0-83.6 37.4-83.6 83.6 0 46.2 37.4 83.6 83.6 83.6z"  horiz-adv-x="1024" />

    
    <glyph glyph-name="yaohuodaiqueren1" unicode="&#58948;" d="M856.8 747H166.3C128 747 97 716.1 97 678v-138.3c0-38.3 30.9-68.9 69.1-69v-379.8c0-38.3 30.8-69.3 68.8-69.3h553.4c37.7 0 68.8 31 68.8 69.3V470.6c38.2 0.1 69.1 31 69.1 69V678c-0.1 38.4-31.1 69-69.4 69z m-34.3-656.2c0-19.1-15.5-34.7-34.2-34.7H234.9c-18.9 0-34.2 15.5-34.2 34.7V470.6h621.8v-379.8z m69 448.9c0-19-15.5-34.5-34.7-34.5H166.3c-19.3 0-34.7 15.3-34.7 34.5V678c0 19 15.5 34.5 34.7 34.5h690.6c19.3 0 34.7-15.3 34.7-34.5v-138.3zM385.6 346.4c-6.7 6.7-17.7 6.7-24.4 0s-6.7-17.7 0-24.4l134.4-134.4 183.2 183.2c6.7 6.7 6.7 17.7 0 24.4s-17.7 6.7-24.4 0L495.5 236.5 385.6 346.4z"  horiz-adv-x="1024" />

    
    <glyph glyph-name="yudingdaifa1" unicode="&#58950;" d="M407.9 4.5H166.3c-19.2 0-34.7 15.5-34.7 34.7V729.7c0 19.1 15.6 34.7 34.4 34.7h587.6c19 0 34.4-15.4 34.4-34.3v-173c0-9.5 7.7-17.3 17.3-17.3 9.5 0 17.3 7.7 17.3 17.3v173c0 38-30.8 68.9-68.9 68.9H165.9C128.2 799 97 768 97 729.7v-690.6c0-38.3 31-69.3 69.3-69.3h241.6c9.5 0 17.3 7.7 17.3 17.3 0 9.6-7.8 17.4-17.3 17.4zM701.5 4.5c104.9 0 190 85.1 190 190s-85.1 190-190 190-190-85.1-190-190 85.1-190 190-190z m0-34.6c-124 0-224.5 100.5-224.5 224.5S577.5 419 701.5 419 926 318.5 926 194.5 825.6-30.1 701.5-30.1zM718.8 211.7v86.7c0 9.5-7.7 16.9-17.3 16.9-9.3 0-17.3-7.6-17.3-16.9v-104.3c0-4.7 1.9-8.9 5-11.9 3.1-3.1 7.3-5 12-5h104.3c9.4 0 16.9 8 16.9 17.3 0 9.5-7.4 17.3-16.9 17.3h-86.7zM235.2 609c0 9.5 7.8 17.3 17.1 17.3h415c9.4 0 17.1-8 17.1-17.3 0-9.5-7.8-17.3-17.1-17.3h-415c-9.5 0-17.1 8-17.1 17.3z m0-172.7c0 9.5 7.9 17.3 17 17.3h173.3c9.4 0 17-8 17-17.3 0-9.5-7.9-17.3-17-17.3H252.1c-9.3 0-16.9 8-16.9 17.3z m0-172.8c0 9.5 7.5 17.3 17.1 17.3h69.4c9.5 0 17.1-8 17.1-17.3 0-9.5-7.5-17.3-17.1-17.3h-69.4c-9.5 0.1-17.1 8.1-17.1 17.3z"  horiz-adv-x="1024" />

    
    <glyph glyph-name="huiyuanshengritixing" unicode="&#58952;" d="M926.4 21h-51.8V319.1l1.1 1.2-1.1 0.9v75.2c0 38.3-30.9 69.2-69 69.2H218.1c-38.2 0-69-31-69-69.2V21H97.3c-9.5 0-17.3-7.7-17.3-17.3 0-9.5 7.7-17.3 17.3-17.3H926.4c9.5 0 17.3 7.7 17.3 17.3-0.1 9.6-7.8 17.3-17.3 17.3zM218.1 431h587.5c19.1 0 34.5-15.4 34.5-34.6v-63.9l-93-101.5c-6.5-7.4-17.2-8-24.4-1.6L657.8 287c-20.9 18.6-54 18.3-74.5-0.8l-61.1-56.6c-7.5-6.9-19.5-6.8-26.9 0.1l-59.2 56.1c-20.5 19.4-53.4 19.4-74 0l-59.2-56.1c-6.8-6.4-17.2-6-23.3 0.8l-96 103.4v62.3c0 19.4 15.4 34.8 34.5 34.8z m-34.5-410V283.2l70.3-75.7c19.2-21.4 51.9-22.6 72.8-2.9l59.2 56.1c7.2 6.8 19.3 6.8 26.4 0l59.2-56.1c20.5-19.5 53.2-19.7 74.1-0.4l61.1 56.6c7.5 6.9 20.4 7.1 28.1 0.3l64.9-57.6c21.5-19.1 54.2-17.1 73.3 4.7l67 73.1V21H183.6zM321.8 763.7c0 9.5 7.7 17.3 17.3 17.3 9.5 0 17.3-7.7 17.3-17.3v-34.5c0-9.5-7.7-17.3-17.3-17.3-9.5 0-17.3 7.7-17.3 17.3v34.5z m0-103.6c0 9.5 7.7 17.3 17.3 17.3 9.5 0 17.3-7.7 17.3-17.3v-142.7c0-9.5-7.7-17.3-17.3-17.3-9.5 0-17.3 7.7-17.3 17.3V660.1z m172.7 103.6c0 9.5 7.7 17.3 17.3 17.3 9.5 0 17.3-7.7 17.3-17.3v-34.5c0-9.5-7.7-17.3-17.3-17.3-9.5 0-17.3 7.7-17.3 17.3v34.5z m0-103.6c0 9.5 7.7 17.3 17.3 17.3 9.5 0 17.3-7.7 17.3-17.3v-142.7c0-9.5-7.7-17.3-17.3-17.3-9.5 0-17.3 7.7-17.3 17.3V660.1z m172.8 103.6c0 9.5 7.7 17.3 17.3 17.3 9.5 0 17.3-7.7 17.3-17.3v-34.5c0-9.5-7.7-17.3-17.3-17.3-9.5 0-17.3 7.7-17.3 17.3v34.5z m0-103.6c0 9.5 7.7 17.3 17.3 17.3 9.5 0 17.3-7.7 17.3-17.3v-142.7c0-9.5-7.7-17.3-17.3-17.3-9.5 0-17.3 7.7-17.3 17.3V660.1z"  horiz-adv-x="1024" />

    
    <glyph glyph-name="tuihuodaichu" unicode="&#58949;" d="M874.2 3.6l-51 622.1H701.7V643c0 104.7-85.1 190-190 190-104.7 0-190-85.1-190-190v-17.3H200.2l-51-622.1c-3.1-38.2 25.4-68.8 63.6-68.8h597.7c38.7 0 66.8 30.8 63.7 68.8zM356.3 643c0 85.8 69.7 155.5 155.5 155.5S667.3 728.8 667.3 643v-17.3h-311V643z m454.3-673.6H212.9c-18.2 0-30.7 13.5-29.2 31.4l48.4 590.4h89.7V453c0-9.5 7.7-17.3 17.3-17.3 9.5 0 17.3 7.7 17.3 17.3V591.2h310.9V453c0-9.5 7.7-17.3 17.3-17.3 9.5 0 17.3 7.7 17.3 17.3V591.2h89.7L840 0.8c1.3-18-11.1-31.4-29.4-31.4zM460.2 261.4h224.5c9.5 0 17.3-7.7 17.3-17.3 0-9.5-7.7-17.3-17.3-17.3H460.2v-103.6L322 244.1 460.2 365v-103.6z"  horiz-adv-x="1024" />

    
    <glyph glyph-name="dairuku2" unicode="&#58951;" d="M926.5 453.1L512 798.5 97.5 453.1h54l49.7 41.4v-456.1c0-38 30.9-68.9 68.9-68.9h484c38.1 0 68.9 30.8 68.9 68.9V142.2c0 9.5-7.7 17.3-17.3 17.3s-17.3-7.7-17.3-17.3v-103.8c0-19-15.4-34.3-34.4-34.3H270c-19 0-34.4 15.4-34.4 34.3V523.3L512 753.6l360.6-300.5h53.9zM512 73.1h138.2V211.3H512v-138.2z m34.5 103.6h69.1v-69.1h-69.1v69.1zM442.9 418.5H304.7v-138.2h138.2V418.5z m-34.5-103.6h-69.1V384h69.1v-69.1zM304.7 73.1h138.2V211.3H304.7v-138.2z m34.6 103.6h69.1v-69.1h-69.1v69.1zM684.7 473.1L546.5 352.2l138.2-120.9V334.9h224.5c9.5 0 17.3 7.7 17.3 17.3 0 9.5-7.7 17.3-17.3 17.3H684.7V473.1z"  horiz-adv-x="1024" />

    
    <glyph glyph-name="tiaobodaichu" unicode="&#58954;" d="M926.1 453.5L511.5 799 97 453.5h54l49.7 41.4v-456.1c0-38 30.9-68.9 68.9-68.9h484c38.1 0 68.9 30.8 68.9 68.9V142.6c0 9.5-7.7 17.3-17.3 17.3-9.5 0-17.3-7.7-17.3-17.3v-103.8c0-19-15.4-34.3-34.4-34.3h-484c-19 0-34.4 15.4-34.4 34.3V523.7L511.5 754l360.6-300.5h54zM511.5 73.5h138.2V211.7H511.5v-138.2z m34.6 103.7h69.1v-69.1h-69.1v69.1zM442.5 419H304.3v-138.2h138.2V419z m-34.6-103.6h-69.1v69.1h69.1v-69.1zM304.3 73.5h138.2V211.7H304.3v-138.2z m34.5 103.7h69.1v-69.1h-69.1v69.1zM787.9 369.9H563.4c-9.5 0-17.3-7.7-17.3-17.3 0-9.5 7.7-17.3 17.3-17.3h224.5v-103.6l138.2 120.9-138.2 120.9v-103.6z"  horiz-adv-x="1024" />

    
    <glyph glyph-name="tongyong1" unicode="&#58904;" d="M548.1 402h117.3c14.9 0 27.1 12.1 27.1 27.1 0 14.9-12.1 27.1-27.1 27.1H376.7c-14.9 0-27.1-12.1-27.1-27.1 0-14.9 12.1-27.1 27.1-27.1H494v-90.2H376.7c-14.9 0-27.1-12.1-27.1-27.1s12.1-27.1 27.1-27.1H494v-81.2c0-14.9 12.1-27.1 27.1-27.1s27.1 12.1 27.1 27.1v81.2h117.3c14.9 0 27.1 12.1 27.1 27.1s-12.1 27.1-27.1 27.1H548.1V402zM512-31C282.8-31 97 154.79999999999995 97 384S282.8 799 512 799s415-185.8 415-415-185.8-415-415-415z m-63.2 631.5c-14.9 0-27.1-12.1-27.1-27.1v-54.1c0-14.9 12.1-27.1 27.1-27.1 14.9 0 27.1 12.1 27.1 27.1v54.1c0 15-12.1 27.1-27.1 27.1z m144.4 0c-14.9 0-27.1-12.1-27.1-27.1v-54.1c0-14.9 12.1-27.1 27.1-27.1 14.9 0 27.1 12.1 27.1 27.1v54.1c0 15-12.2 27.1-27.1 27.1z"  horiz-adv-x="1024" />

    
    <glyph glyph-name="budan" unicode="&#58926;" d="M823.2 721.2H719.5v51.9c0 28.6-23.2 51.9-51.9 51.9s-51.9-23.2-51.9-51.9v-51.9H408.2v51.9c0 28.6-23.2 51.9-51.9 51.9s-51.9-23.2-51.9-51.9v-51.9H200.8C143.5 721.2 97 674.8 97 617.5v-570.6c0-57.3 46.5-103.8 103.8-103.8h622.5c57.3 0 103.8 46.5 103.8 103.8V617.5c-0.1 57.3-46.6 103.7-103.9 103.7z m0-674.3H200.8V617.5h103.8v-51.9c0-28.6 23.2-51.9 51.9-51.9s51.9 23.2 51.9 51.9v51.9h207.5v-51.9c0-28.6 23.2-51.9 51.9-51.9s51.9 23.2 51.9 51.9v51.9h103.8v-570.6zM563.9 358.1V410c0 28.6-23.2 51.9-51.9 51.9s-51.9-23.2-51.9-51.9v-51.9h-51.9c-28.6 0-51.9-23.2-51.9-51.9s23.2-51.9 51.9-51.9h51.9v-51.9c0-28.6 23.2-51.9 51.9-51.9s51.9 23.2 51.9 51.9v51.9h51.9c28.6 0 51.9 23.2 51.9 51.9s-23.2 51.9-51.9 51.9h-51.9z"  horiz-adv-x="1024" />

    
    <glyph glyph-name="guadan" unicode="&#58927;" d="M858.8-21H166c-29.4 0-53.3 23.9-53.3 53.3s23.9 53.3 53.3 53.3h692.8c29.4 0 53.3-23.9 53.3-53.3S888.3-21 858.8-21z m0 213.2H166c-29.4 0-53.3 23.9-53.3 53.3s23.9 53.3 53.3 53.3h692.8c29.4 0 53.3-23.9 53.3-53.3 0-29.5-23.8-53.3-53.3-53.3z m0 213.1H752.2c-29.4 0-53.3 23.9-53.3 53.3s23.9 53.3 53.3 53.3h106.6c29.4 0 53.3-23.9 53.3-53.3s-23.8-53.3-53.3-53.3z m0 213.2H752.2c-29.4 0-53.3 23.9-53.3 53.3s23.9 53.3 53.3 53.3h106.6c29.4 0 53.3-23.9 53.3-53.3s-23.8-53.3-53.3-53.3zM272.6 405.3H166c-29.4 0-53.3 23.9-53.3 53.3s23.9 53.3 53.3 53.3h106.6c29.4 0 53.3-23.9 53.3-53.3s-23.9-53.3-53.3-53.3z m0 213.2H166c-29.4 0-53.3 23.9-53.3 53.3s23.9 53.3 53.3 53.3h106.6c29.4 0 53.3-23.9 53.3-53.3s-23.9-53.3-53.3-53.3zM565.7 574.9v-169.6c0-29.4-23.9-53.3-53.3-53.3s-53.3 23.9-53.3 53.3V574.9H352.5l159.9 213.2 159.9-213.2H565.7z"  horiz-adv-x="1024" />

    
    <glyph glyph-name="daxiaopiao" unicode="&#58928;" d="M850.3 795H173.7c-53.4 0-96.7-43.3-96.7-96.7V505c0-53.4 43.3-96.7 96.7-96.7H222V70c0-53.4 43.3-96.7 96.7-96.7h386.7c53.4 0 96.7 43.3 96.7 96.7V408.3h48.3c53.4 0 96.7 43.3 96.7 96.7V698.3c-0.1 53.4-43.4 96.7-96.8 96.7z m-145-725H318.7V505h386.7v-435z m145 435H802v96.7H222V505h-48.3V698.3h676.7V505zM546 305h68c18.8 0 34 15.2 34 34s-15.2 34-34 34h-32.5l29.9 29.9c13.3 13.3 13.3 34.8 0 48.1-13.3 13.3-34.8 13.3-48.1 0L512 399.7 460.7 451c-13.3 13.3-34.8 13.3-48.1 0-13.3-13.3-13.3-34.8 0-48.1l29.9-29.9H410c-18.8 0-34-15.2-34-34s15.2-34 34-34h68v-34h-68c-18.8 0-34-15.2-34-34s15.2-34 34-34h68v-68c0-18.8 15.2-34 34-34s34 15.2 34 34v68h68c18.8 0 34 15.2 34 34s-15.2 34-34 34h-68v34z"  horiz-adv-x="1024" />

    
    <glyph glyph-name="jiesuo" unicode="&#58932;" d="M718.4 558.8v58.1c0 114.2-92.7 207.1-207 207.1-114.1 0-207.1-92.7-207.1-207.1v-58.1C215 536 149 454.9 149 358.5V151c0-113.8 92.5-206.8 206.7-206.8H667c114.2 0 206.7 92.6 206.7 206.8V358.5c0 96.1-66 177.4-155.3 200.3z m-207 176.3c62.2 0 112.9-50.7 112.9-112.9v-56.9H398.5v56.9c0 62.3 50.7 112.9 112.9 112.9z m277.2-591.9c0-61.2-49.5-110.7-110.6-110.7H344.4c-60.9 0-110.6 49.8-110.6 110.7V365.5c0 61.2 49.5 110.7 110.6 110.7H678c60.9 0 110.6-49.8 110.6-110.7v-222.3zM461.1 209c-31.8 17.7-53.4 51.6-53.4 90.6 0 57.2 46.4 103.5 103.5 103.5s103.5-46.4 103.5-103.5c0-39-21.5-72.9-53.4-90.6 1-4.1 1.6-8.4 1.6-12.9v-51.9c0-28.6-23-51.7-51.8-51.7-28.6 0-51.8 22.9-51.8 51.7v51.9c0.2 4.4 0.7 8.7 1.8 12.9z"  horiz-adv-x="1024" />

    
    <glyph glyph-name="kaiqianxiang" unicode="&#58953;" d="M859.2 612.7C844.6 715.1 748.3 799 644.3 799H379.7c-103.9 0-200.3-83.4-214.9-186.3L97 344.1v-193.5C97 50.5 178.4-31 278.9-31h466.2C845.6-31 927 50.3 927 150.6V344l-67.8 268.7z m-658.4-276l66.8 261.4c7.4 51.7 59.9 97.2 112.2 97.2h264.6c52.2 0 104.9-45.7 112.2-97.2l66.8-261.4v-4.6h-178c-19.4-52.9-71.8-90.8-133.4-90.8s-114 37.9-133.4 90.8H200.8v4.6z m622.4-186.1c0-42.9-34.9-77.8-78.2-77.8H278.9c-43.1 0-78.2 35-78.2 77.8v77.8h119.1c45.6-56.2 115.7-90.8 192.1-90.8s146.6 34.6 192.1 90.8h119.1v-77.8zM546 495h68c18.8 0 34 15.2 34 34s-15.2 34-34 34h-32.5l29.9 29.9c13.3 13.3 13.3 34.8 0 48.1-13.3 13.3-34.8 13.3-48.1 0L512 589.7 460.7 641c-13.3 13.3-34.8 13.3-48.1 0-13.3-13.3-13.3-34.8 0-48.1l29.9-29.9H410c-18.8 0-34-15.2-34-34s15.2-34 34-34h68v-34h-68c-18.8 0-34-15.2-34-34s15.2-34 34-34h68v-68c0-18.8 15.2-34 34-34s34 15.2 34 34v68h68c18.8 0 34 15.2 34 34s-15.2 34-34 34h-68v34z"  horiz-adv-x="1024" />

    
    <glyph glyph-name="jiegua" unicode="&#58955;" d="M165.3 789h692.8c29.4 0 53.3-23.9 53.3-53.3s-23.9-53.3-53.3-53.3H165.3c-29.4 0-53.3 23.9-53.3 53.3s23.9 53.3 53.3 53.3z m0-213.2h692.8c29.4 0 53.3-23.9 53.3-53.3s-23.9-53.3-53.3-53.3H165.3c-29.4 0-53.3 23.9-53.3 53.3 0 29.5 23.9 53.3 53.3 53.3z m0-213.1h106.6c29.4 0 53.3-23.9 53.3-53.3s-23.9-53.3-53.3-53.3H165.3c-29.4 0-53.3 23.9-53.3 53.3s23.9 53.3 53.3 53.3z m0-213.2h106.6c29.4 0 53.3-23.9 53.3-53.3s-23.9-53.3-53.3-53.3H165.3c-29.4 0-53.3 23.9-53.3 53.3s23.9 53.3 53.3 53.3z m586.2 213.2h106.6c29.4 0 53.3-23.9 53.3-53.3s-23.9-53.3-53.3-53.3H751.5c-29.4 0-53.3 23.9-53.3 53.3s23.9 53.3 53.3 53.3z m0-213.2h106.6c29.4 0 53.3-23.9 53.3-53.3s-23.9-53.3-53.3-53.3H751.5c-29.4 0-53.3 23.9-53.3 53.3s23.9 53.3 53.3 53.3zM458.4 193.1V362.7c0 29.4 23.9 53.3 53.3 53.3s53.3-23.9 53.3-53.3v-169.6h106.6L511.7-20.1 351.8 193.1h106.6z"  horiz-adv-x="1024" />

    
    <glyph glyph-name="tuiding" unicode="&#58956;" d="M823.2 721.2H719.5v51.9c0 28.6-23.2 51.9-51.9 51.9s-51.9-23.2-51.9-51.9v-51.9H408.2v51.9c0 28.6-23.2 51.9-51.9 51.9s-51.9-23.2-51.9-51.9v-51.9H200.8C143.5 721.2 97 674.8 97 617.5v-570.6c0-57.3 46.5-103.8 103.8-103.8h622.5c57.3 0 103.8 46.5 103.8 103.8V617.5c-0.1 57.3-46.6 103.7-103.9 103.7z m0-674.3H200.8V617.5h103.8v-51.9c0-28.6 23.2-51.9 51.9-51.9s51.9 23.2 51.9 51.9v51.9h207.5v-51.9c0-28.6 23.2-51.9 51.9-51.9s51.9 23.2 51.9 51.9v51.9h103.8v-570.6zM502.6 358.1h165.1c28.6 0 51.9-23.2 51.9-51.9s-23.2-51.9-51.9-51.9H502.6v-103.8L295.1 306.2l207.5 155.6v-103.7z"  horiz-adv-x="1024" />

    
    <glyph glyph-name="tuihuo" unicode="&#58957;" d="M846.8 702.7C825 756 760.9 799 703.8 799H320.2c-57.2 0-121.2-43.1-143-96.3L97 559.3v-401.8C97 53.4 181.9-31 286.1-31h451.8C842.3-31 927 53.4 927 157.5V559.3l-80.2 143.4z m-573.6-39.4c5.9 14.3 32.1 31.9 47.1 31.9h383.5c15.1 0 41.2-17.6 47.1-31.9l56.6-86H216.6l56.6 86z m550-505.8c0-46.7-38.1-84.7-85.3-84.7H286.1c-47.1 0-85.3 38.1-85.3 84.7V487.8h622.5v-330.3zM502.6 332.1h165.1c28.6 0 51.9-23.2 51.9-51.9s-23.2-51.9-51.9-51.9H502.6v-103.8L295.1 280.2l207.5 155.6v-103.7z"  horiz-adv-x="1024" />

    
    <glyph glyph-name="yuding" unicode="&#58958;" d="M823.2 721.2H719.5v51.9c0 28.6-23.2 51.9-51.9 51.9s-51.9-23.2-51.9-51.9v-51.9H408.2v51.9c0 28.6-23.2 51.9-51.9 51.9s-51.9-23.2-51.9-51.9v-51.9H200.8C143.5 721.2 97 674.8 97 617.5v-570.6c0-57.3 46.5-103.8 103.8-103.8h622.5c57.3 0 103.8 46.5 103.8 103.8V617.5c-0.1 57.3-46.6 103.7-103.9 103.7z m0-674.3H200.8V617.5h103.8v-51.9c0-28.6 23.2-51.9 51.9-51.9s51.9 23.2 51.9 51.9v51.9h207.5v-51.9c0-28.6 23.2-51.9 51.9-51.9s51.9 23.2 51.9 51.9v51.9h103.8v-570.6zM521.4 358.1h-165c-28.6 0-51.9-23.2-51.9-51.9s23.2-51.9 51.9-51.9h165.1v-103.8L729 306.1 521.4 461.9v-103.8z"  horiz-adv-x="1024" />

    
    <glyph glyph-name="shezhi" unicode="&#58959;" d="M512 334c27.6 0 50 22.4 50 50s-22.4 50-50 50-50-22.4-50-50 22.4-50 50-50z m0-100c-82.8 0-150 67.2-150 150s67.2 150 150 150 150-67.2 150-150-67.2-150-150-150zM562 730.5c59.3-8.5 113.8-31.8 159.6-66.1l37.9 37.9c19.5 19.5 51.2 19.5 70.7 0s19.5-51.2 0-70.7l-37.9-37.9c34.3-45.8 57.7-100.3 66.1-159.6H912c27.6 0 50-22.4 50-50s-22.4-50-50-50h-53.5c-8.5-59.3-31.8-113.8-66.1-159.6l37.9-37.9c19.5-19.5 19.5-51.2 0-70.7s-51.2-19.5-70.7 0l-37.9 37.9C675.8 69.4 621.3 46 562 37.5V-16c0-27.6-22.4-50-50-50s-50 22.4-50 50v53.5c-59.3 8.5-113.8 31.8-159.6 66.1l-37.9-37.9c-19.5-19.5-51.2-19.5-70.7 0s-19.5 51.2 0 70.7l37.9 37.9C197.4 220.2 174 274.7 165.5 334H112c-27.6 0-50 22.4-50 50s22.4 50 50 50h53.5c8.5 59.3 31.8 113.8 66.1 159.6l-37.9 37.9c-19.5 19.5-19.5 51.2 0 70.7s51.2 19.5 70.7 0l37.9-37.9c45.8 34.3 100.3 57.7 159.6 66.1V784c0 27.6 22.4 50 50 50s50-22.4 50-50v-53.5zM512 134c138.1 0 250 111.9 250 250S650.1 634 512 634 262 522.1 262 384s111.9-250 250-250z"  horiz-adv-x="1024" />

    
    <glyph glyph-name="jiaohuo" unicode="&#58960;" d="M846.8 702.7C825 755.9 760.9 799 703.8 799H320.2c-57.2 0-121.2-43-143-96.3L97 559.3v-401.8C97 53.4 181.7-31 286.1-31h451.8C842.1-31 927 53.4 927 157.5V559.3l-80.2 143.4z m-573.6-39.4c5.9 14.4 32 31.9 47.1 31.9h383.5c15 0 41.2-17.6 47.1-31.9l56.6-86H216.6l56.6 86z m550-505.8c0-46.6-38.3-84.7-85.3-84.7H286.1c-47.2 0-85.3 38-85.3 84.7V487.8h622.5v-330.3zM521.4 332.1h-165c-28.6 0-51.9-23.2-51.9-51.9s23.2-51.9 51.9-51.9h165.1v-103.8L729 280.1 521.4 435.9v-103.8z"  horiz-adv-x="1024" />

    
    <glyph glyph-name="jiaohuo1" unicode="&#58961;" d="M846.8 702.7C825 755.9 760.9 799 703.8 799H320.2c-57.2 0-121.2-43-143-96.3L97 559.3v-401.8C97 53.4 181.7-31 286.1-31h451.8C842.1-31 927 53.4 927 157.5V559.3l-80.2 143.4z m-573.6-39.4c5.9 14.4 32 31.9 47.1 31.9h383.5c15 0 41.2-17.6 47.1-31.9l56.6-86H216.6l56.6 86z m550-505.8c0-46.6-38.3-84.7-85.3-84.7H286.1c-47.2 0-85.3 38-85.3 84.7V487.8h622.5v-330.3zM521.4 332.1h-165c-28.6 0-51.9-23.2-51.9-51.9s23.2-51.9 51.9-51.9h165.1v-103.8L729 280.1 521.4 435.9v-103.8z"  horiz-adv-x="1024" />

    
    <glyph glyph-name="guadan1" unicode="&#58962;" d="M858.1-21H165.3c-29.4 0-53.3 23.9-53.3 53.3s23.9 53.3 53.3 53.3h692.8c29.4 0 53.3-23.9 53.3-53.3S887.5-21 858.1-21z m0 213.2H165.3c-29.4 0-53.3 23.9-53.3 53.3s23.9 53.3 53.3 53.3h692.8c29.4 0 53.3-23.9 53.3-53.3 0-29.5-23.9-53.3-53.3-53.3z m0 213.1H751.5c-29.4 0-53.3 23.9-53.3 53.3s23.9 53.3 53.3 53.3h106.6c29.4 0 53.3-23.9 53.3-53.3s-23.9-53.3-53.3-53.3z m0 213.2H751.5c-29.4 0-53.3 23.9-53.3 53.3s23.9 53.3 53.3 53.3h106.6c29.4 0 53.3-23.9 53.3-53.3s-23.9-53.3-53.3-53.3zM271.9 405.3H165.3c-29.4 0-53.3 23.9-53.3 53.3s23.9 53.3 53.3 53.3h106.6c29.4 0 53.3-23.9 53.3-53.3s-23.9-53.3-53.3-53.3z m0 213.2H165.3c-29.4 0-53.3 23.9-53.3 53.3s23.9 53.3 53.3 53.3h106.6c29.4 0 53.3-23.9 53.3-53.3s-23.9-53.3-53.3-53.3zM565 574.9v-169.6c0-29.4-23.9-53.3-53.3-53.3s-53.3 23.9-53.3 53.3V574.9H351.8l159.9 213.2 159.9-213.2H565z"  horiz-adv-x="1024" />

    
    <glyph glyph-name="daxiaopiao1" unicode="&#58963;" d="M850.3 795H173.7c-53.4 0-96.7-43.3-96.7-96.7V505c0-53.4 43.3-96.7 96.7-96.7H222V70c0-53.4 43.3-96.7 96.7-96.7h386.7c53.4 0 96.7 43.3 96.7 96.7V408.3h48.3c53.4 0 96.7 43.3 96.7 96.7V698.3c-0.1 53.4-43.4 96.7-96.8 96.7z m-145-725H318.7V505h386.7v-435z m145 435H802v96.7H222V505h-48.3V698.3h676.7V505zM546 305h68c18.8 0 34 15.2 34 34s-15.2 34-34 34h-32.5l29.9 29.9c13.3 13.3 13.3 34.8 0 48.1-13.3 13.3-34.8 13.3-48.1 0L512 399.7 460.7 451c-13.3 13.3-34.8 13.3-48.1 0-13.3-13.3-13.3-34.8 0-48.1l29.9-29.9H410c-18.8 0-34-15.2-34-34s15.2-34 34-34h68v-34h-68c-18.8 0-34-15.2-34-34s15.2-34 34-34h68v-68c0-18.8 15.2-34 34-34s34 15.2 34 34v68h68c18.8 0 34 15.2 34 34s-15.2 34-34 34h-68v34z"  horiz-adv-x="1024" />

    
    <glyph glyph-name="jiegua1" unicode="&#58964;" d="M165.3 789h692.8c29.4 0 53.3-23.9 53.3-53.3s-23.9-53.3-53.3-53.3H165.3c-29.4 0-53.3 23.9-53.3 53.3s23.9 53.3 53.3 53.3z m0-213.2h692.8c29.4 0 53.3-23.9 53.3-53.3s-23.9-53.3-53.3-53.3H165.3c-29.4 0-53.3 23.9-53.3 53.3 0 29.5 23.9 53.3 53.3 53.3z m0-213.1h106.6c29.4 0 53.3-23.9 53.3-53.3s-23.9-53.3-53.3-53.3H165.3c-29.4 0-53.3 23.9-53.3 53.3s23.9 53.3 53.3 53.3z m0-213.2h106.6c29.4 0 53.3-23.9 53.3-53.3s-23.9-53.3-53.3-53.3H165.3c-29.4 0-53.3 23.9-53.3 53.3s23.9 53.3 53.3 53.3z m586.2 213.2h106.6c29.4 0 53.3-23.9 53.3-53.3s-23.9-53.3-53.3-53.3H751.5c-29.4 0-53.3 23.9-53.3 53.3s23.9 53.3 53.3 53.3z m0-213.2h106.6c29.4 0 53.3-23.9 53.3-53.3s-23.9-53.3-53.3-53.3H751.5c-29.4 0-53.3 23.9-53.3 53.3s23.9 53.3 53.3 53.3zM458.4 193.1V362.7c0 29.4 23.9 53.3 53.3 53.3s53.3-23.9 53.3-53.3v-169.6h106.6L511.7-20.1 351.8 193.1h106.6z"  horiz-adv-x="1024" />

    
    <glyph glyph-name="jiesuo1" unicode="&#58965;" d="M718.4 558.8v58.1c0 114.2-92.7 207.1-207 207.1-114.1 0-207.1-92.7-207.1-207.1v-58.1C215 536 149 454.9 149 358.5V151c0-113.8 92.5-206.8 206.7-206.8H667c114.2 0 206.7 92.6 206.7 206.8V358.5c0 96.1-66 177.4-155.3 200.3z m-207 176.3c62.2 0 112.9-50.7 112.9-112.9v-56.9H398.5v56.9c0 62.3 50.7 112.9 112.9 112.9z m277.2-591.9c0-61.2-49.5-110.7-110.6-110.7H344.4c-60.9 0-110.6 49.8-110.6 110.7V365.5c0 61.2 49.5 110.7 110.6 110.7H678c60.9 0 110.6-49.8 110.6-110.7v-222.3zM461.1 209c-31.8 17.7-53.4 51.6-53.4 90.6 0 57.2 46.4 103.5 103.5 103.5s103.5-46.4 103.5-103.5c0-39-21.5-72.9-53.4-90.6 1-4.1 1.6-8.4 1.6-12.9v-51.9c0-28.6-23-51.7-51.8-51.7-28.6 0-51.8 22.9-51.8 51.7v51.9c0.2 4.4 0.7 8.7 1.8 12.9z"  horiz-adv-x="1024" />

    
    <glyph glyph-name="budan1" unicode="&#58966;" d="M823.2 721.2H719.5v51.9c0 28.6-23.2 51.9-51.9 51.9s-51.9-23.2-51.9-51.9v-51.9H408.2v51.9c0 28.6-23.2 51.9-51.9 51.9s-51.9-23.2-51.9-51.9v-51.9H200.8C143.5 721.2 97 674.8 97 617.5v-570.6c0-57.3 46.5-103.8 103.8-103.8h622.5c57.3 0 103.8 46.5 103.8 103.8V617.5c-0.1 57.3-46.6 103.7-103.9 103.7z m0-674.3H200.8V617.5h103.8v-51.9c0-28.6 23.2-51.9 51.9-51.9s51.9 23.2 51.9 51.9v51.9h207.5v-51.9c0-28.6 23.2-51.9 51.9-51.9s51.9 23.2 51.9 51.9v51.9h103.8v-570.6zM563.9 358.1V410c0 28.6-23.2 51.9-51.9 51.9s-51.9-23.2-51.9-51.9v-51.9h-51.9c-28.6 0-51.9-23.2-51.9-51.9s23.2-51.9 51.9-51.9h51.9v-51.9c0-28.6 23.2-51.9 51.9-51.9s51.9 23.2 51.9 51.9v51.9h51.9c28.6 0 51.9 23.2 51.9 51.9s-23.2 51.9-51.9 51.9h-51.9z"  horiz-adv-x="1024" />

    
    <glyph glyph-name="kaiqianxiang1" unicode="&#58967;" d="M859.2 612.7C844.6 715.1 748.3 799 644.3 799H379.7c-103.9 0-200.3-83.4-214.9-186.3L97 344.1v-193.5C97 50.5 178.4-31 278.9-31h466.2C845.6-31 927 50.3 927 150.6V344l-67.8 268.7z m-658.4-276l66.8 261.4c7.4 51.7 59.9 97.2 112.2 97.2h264.6c52.2 0 104.9-45.7 112.2-97.2l66.8-261.4v-4.6h-178c-19.4-52.9-71.8-90.8-133.4-90.8s-114 37.9-133.4 90.8H200.8v4.6z m622.4-186.1c0-42.9-34.9-77.8-78.2-77.8H278.9c-43.1 0-78.2 35-78.2 77.8v77.8h119.1c45.6-56.2 115.7-90.8 192.1-90.8s146.6 34.6 192.1 90.8h119.1v-77.8zM546 495h68c18.8 0 34 15.2 34 34s-15.2 34-34 34h-32.5l29.9 29.9c13.3 13.3 13.3 34.8 0 48.1-13.3 13.3-34.8 13.3-48.1 0L512 589.7 460.7 641c-13.3 13.3-34.8 13.3-48.1 0-13.3-13.3-13.3-34.8 0-48.1l29.9-29.9H410c-18.8 0-34-15.2-34-34s15.2-34 34-34h68v-34h-68c-18.8 0-34-15.2-34-34s15.2-34 34-34h68v-68c0-18.8 15.2-34 34-34s34 15.2 34 34v68h68c18.8 0 34 15.2 34 34s-15.2 34-34 34h-68v34z"  horiz-adv-x="1024" />

    
    <glyph glyph-name="tuihuo1" unicode="&#58968;" d="M846.8 702.7C825 756 760.9 799 703.8 799H320.2c-57.2 0-121.2-43.1-143-96.3L97 559.3v-401.8C97 53.4 181.9-31 286.1-31h451.8C842.3-31 927 53.4 927 157.5V559.3l-80.2 143.4z m-573.6-39.4c5.9 14.3 32.1 31.9 47.1 31.9h383.5c15.1 0 41.2-17.6 47.1-31.9l56.6-86H216.6l56.6 86z m550-505.8c0-46.7-38.1-84.7-85.3-84.7H286.1c-47.1 0-85.3 38.1-85.3 84.7V487.8h622.5v-330.3zM502.6 332.1h165.1c28.6 0 51.9-23.2 51.9-51.9s-23.2-51.9-51.9-51.9H502.6v-103.8L295.1 280.2l207.5 155.6v-103.7z"  horiz-adv-x="1024" />

    
    <glyph glyph-name="yuding1" unicode="&#58969;" d="M823.2 721.2H719.5v51.9c0 28.6-23.2 51.9-51.9 51.9s-51.9-23.2-51.9-51.9v-51.9H408.2v51.9c0 28.6-23.2 51.9-51.9 51.9s-51.9-23.2-51.9-51.9v-51.9H200.8C143.5 721.2 97 674.8 97 617.5v-570.6c0-57.3 46.5-103.8 103.8-103.8h622.5c57.3 0 103.8 46.5 103.8 103.8V617.5c-0.1 57.3-46.6 103.7-103.9 103.7z m0-674.3H200.8V617.5h103.8v-51.9c0-28.6 23.2-51.9 51.9-51.9s51.9 23.2 51.9 51.9v51.9h207.5v-51.9c0-28.6 23.2-51.9 51.9-51.9s51.9 23.2 51.9 51.9v51.9h103.8v-570.6zM521.4 358.1h-165c-28.6 0-51.9-23.2-51.9-51.9s23.2-51.9 51.9-51.9h165.1v-103.8L729 306.1 521.4 461.9v-103.8z"  horiz-adv-x="1024" />

    
    <glyph glyph-name="tuiding1" unicode="&#58970;" d="M823.2 721.2H719.5v51.9c0 28.6-23.2 51.9-51.9 51.9s-51.9-23.2-51.9-51.9v-51.9H408.2v51.9c0 28.6-23.2 51.9-51.9 51.9s-51.9-23.2-51.9-51.9v-51.9H200.8C143.5 721.2 97 674.8 97 617.5v-570.6c0-57.3 46.5-103.8 103.8-103.8h622.5c57.3 0 103.8 46.5 103.8 103.8V617.5c-0.1 57.3-46.6 103.7-103.9 103.7z m0-674.3H200.8V617.5h103.8v-51.9c0-28.6 23.2-51.9 51.9-51.9s51.9 23.2 51.9 51.9v51.9h207.5v-51.9c0-28.6 23.2-51.9 51.9-51.9s51.9 23.2 51.9 51.9v51.9h103.8v-570.6zM502.6 358.1h165.1c28.6 0 51.9-23.2 51.9-51.9s-23.2-51.9-51.9-51.9H502.6v-103.8L295.1 306.2l207.5 155.6v-103.7z"  horiz-adv-x="1024" />

    
    <glyph glyph-name="shezhi1" unicode="&#58971;" d="M512 334c27.6 0 50 22.4 50 50s-22.4 50-50 50-50-22.4-50-50 22.4-50 50-50z m0-100c-82.8 0-150 67.2-150 150s67.2 150 150 150 150-67.2 150-150-67.2-150-150-150zM562 730.5c59.3-8.5 113.8-31.8 159.6-66.1l37.9 37.9c19.5 19.5 51.2 19.5 70.7 0s19.5-51.2 0-70.7l-37.9-37.9c34.3-45.8 57.7-100.3 66.1-159.6H912c27.6 0 50-22.4 50-50s-22.4-50-50-50h-53.5c-8.5-59.3-31.8-113.8-66.1-159.6l37.9-37.9c19.5-19.5 19.5-51.2 0-70.7s-51.2-19.5-70.7 0l-37.9 37.9C675.8 69.4 621.3 46 562 37.5V-16c0-27.6-22.4-50-50-50s-50 22.4-50 50v53.5c-59.3 8.5-113.8 31.8-159.6 66.1l-37.9-37.9c-19.5-19.5-51.2-19.5-70.7 0s-19.5 51.2 0 70.7l37.9 37.9C197.4 220.2 174 274.7 165.5 334H112c-27.6 0-50 22.4-50 50s22.4 50 50 50h53.5c8.5 59.3 31.8 113.8 66.1 159.6l-37.9 37.9c-19.5 19.5-19.5 51.2 0 70.7s51.2 19.5 70.7 0l37.9-37.9c45.8 34.3 100.3 57.7 159.6 66.1V784c0 27.6 22.4 50 50 50s50-22.4 50-50v-53.5zM512 134c138.1 0 250 111.9 250 250S650.1 634 512 634 262 522.1 262 384s111.9-250 250-250z"  horiz-adv-x="1024" />

    
    <glyph glyph-name="shouqiquanping" unicode="&#58972;" d="M792.9 591.5h82.3c28.6 0 51.9-23.2 51.9-51.9s-23.2-51.9-51.9-51.9H667.6c-28.6 0-51.9 23.2-51.9 51.9V747.1c0 28.6 23.2 51.9 51.9 51.9s51.9-23.2 51.9-51.9v-82.3L827.7 773c20.3 20.3 53.1 20.3 73.4 0s20.3-53.1 0-73.4L792.9 591.5z m-561.8-415h-82.3c-28.6 0-51.9 23.2-51.9 51.9s23.2 51.9 51.9 51.9h207.5c28.6 0 51.9-23.2 51.9-51.9v-207.5c0-28.6-23.2-51.9-51.9-51.9s-51.9 23.2-51.9 51.9v82.3L196.3-5.1c-20.3-20.3-53.1-20.3-73.4 0s-20.3 53.1 0 73.4l108.2 108.2z"  horiz-adv-x="1024" />

    
    <glyph glyph-name="shouhou" unicode="&#58973;" d="M460.1 279.4h103.8c28.6 0 51.9-23.2 51.9-51.9 0-28.6-23.2-51.9-51.9-51.9H460.1c-28.6 0-51.9 23.2-51.9 51.9 0 28.6 23.3 51.9 51.9 51.9zM678 150c0 16.7 8.1 32.5 21.7 42.2L801.5 265c13.6 9.7 21.7 25.5 21.7 42.2V542.5c0 15.9-7.3 30.9-19.7 40.7l-71 56v-85.6c0-18.2-9.6-35.1-25.2-44.5L538.7 408c-16.5-9.9-37.1-9.8-53.6 0.1L318.3 509.3c-15.5 9.4-25 26.2-25 44.4v86.2l-72.6-56.8c-12.6-9.8-19.9-24.9-19.9-40.9v-234.7c0-16.8 8.2-32.6 21.9-42.3l101.5-71.9c13.7-9.7 21.9-25.5 21.9-42.3v-79.1h332V150z m103.8-81.6c0-55.4-44.9-100.3-100.3-100.3h-339c-55.4 0-100.3 44.9-100.3 100.3v55.7l-79.6 56.4c-41.2 29.2-65.7 76.5-65.7 127V542.2c0 47.9 22.1 93.1 59.8 122.6l156.4 122.3c34.1 26.6 83.8 2.4 83.8-40.9v-163.4L512 513.1 628.7 583V746.2c0 43.3 50 67.6 84 40.7l155-122.3c37.4-29.5 59.2-74.5 59.2-122.2v-235.3c0-50.2-24.2-97.4-65.1-126.6l-80.1-57.3v-54.8z"  horiz-adv-x="1024" />

    
    <glyph glyph-name="gengduo" unicode="&#58974;" d="M215.8 680.2v-148.1h148.1V680.2H215.8z m0 98.8h148.1c54.5 0 98.8-44.2 98.8-98.8v-148.1c0-54.5-44.2-98.8-98.8-98.8H215.8c-54.5 0-98.8 44.2-98.8 98.8V680.2c0 54.6 44.2 98.8 98.8 98.8z m0-444.4h148.1c54.5 0 98.8-44.2 98.8-98.8v-148.1c0-54.5-44.2-98.8-98.8-98.8H215.8c-54.5 0-98.8 44.2-98.8 98.8V235.9c0 54.5 44.2 98.7 98.8 98.7z m444.3 0h148.1c54.5 0 98.8-44.2 98.8-98.8v-148.1c0-54.5-44.2-98.8-98.8-98.8H660.1c-54.5 0-98.8 44.2-98.8 98.8V235.9c0.1 54.5 44.3 98.7 98.8 98.7z m-444.3-98.7v-148.1h148.1V235.9H215.8z m444.3 0v-148.1h148.1V235.9H660.1zM734.2 680.2c-40.9 0-74.1-33.2-74.1-74.1s33.2-74.1 74.1-74.1 74.1 33.2 74.1 74.1-33.2 74.1-74.1 74.1z m0 98.8c95.4 0 172.8-77.4 172.8-172.8s-77.4-172.8-172.8-172.8-172.8 77.4-172.8 172.8S638.7 779 734.2 779z"  horiz-adv-x="1024" />

    
    <glyph glyph-name="gengduo1" unicode="&#58975;" d="M215.8 680.2v-148.1h148.1V680.2H215.8z m0 98.8h148.1c54.5 0 98.8-44.2 98.8-98.8v-148.1c0-54.5-44.2-98.8-98.8-98.8H215.8c-54.5 0-98.8 44.2-98.8 98.8V680.2c0 54.6 44.2 98.8 98.8 98.8z m0-444.4h148.1c54.5 0 98.8-44.2 98.8-98.8v-148.1c0-54.5-44.2-98.8-98.8-98.8H215.8c-54.5 0-98.8 44.2-98.8 98.8V235.9c0 54.5 44.2 98.7 98.8 98.7z m444.3 0h148.1c54.5 0 98.8-44.2 98.8-98.8v-148.1c0-54.5-44.2-98.8-98.8-98.8H660.1c-54.5 0-98.8 44.2-98.8 98.8V235.9c0.1 54.5 44.3 98.7 98.8 98.7z m-444.3-98.7v-148.1h148.1V235.9H215.8z m444.3 0v-148.1h148.1V235.9H660.1zM734.2 680.2c-40.9 0-74.1-33.2-74.1-74.1s33.2-74.1 74.1-74.1 74.1 33.2 74.1 74.1-33.2 74.1-74.1 74.1z m0 98.8c95.4 0 172.8-77.4 172.8-172.8s-77.4-172.8-172.8-172.8-172.8 77.4-172.8 172.8S638.7 779 734.2 779z"  horiz-adv-x="1024" />

    
    <glyph glyph-name="shouhou1" unicode="&#58976;" d="M460.1 279.4h103.8c28.6 0 51.9-23.2 51.9-51.9 0-28.6-23.2-51.9-51.9-51.9H460.1c-28.6 0-51.9 23.2-51.9 51.9 0 28.6 23.3 51.9 51.9 51.9zM678 150c0 16.7 8.1 32.5 21.7 42.2L801.5 265c13.6 9.7 21.7 25.5 21.7 42.2V542.5c0 15.9-7.3 30.9-19.7 40.7l-71 56v-85.6c0-18.2-9.6-35.1-25.2-44.5L538.7 408c-16.5-9.9-37.1-9.8-53.6 0.1L318.3 509.3c-15.5 9.4-25 26.2-25 44.4v86.2l-72.6-56.8c-12.6-9.8-19.9-24.9-19.9-40.9v-234.7c0-16.8 8.2-32.6 21.9-42.3l101.5-71.9c13.7-9.7 21.9-25.5 21.9-42.3v-79.1h332V150z m103.8-81.6c0-55.4-44.9-100.3-100.3-100.3h-339c-55.4 0-100.3 44.9-100.3 100.3v55.7l-79.6 56.4c-41.2 29.2-65.7 76.5-65.7 127V542.2c0 47.9 22.1 93.1 59.8 122.6l156.4 122.3c34.1 26.6 83.8 2.4 83.8-40.9v-163.4L512 513.1 628.7 583V746.2c0 43.3 50 67.6 84 40.7l155-122.3c37.4-29.5 59.2-74.5 59.2-122.2v-235.3c0-50.2-24.2-97.4-65.1-126.6l-80.1-57.3v-54.8z"  horiz-adv-x="1024" />

    
    <glyph glyph-name="bianji" unicode="&#58652;" d="M655-11H369c-67.3 0-130.6 26.2-178.2 73.8C143.2 110.39999999999998 117 173.70000000000005 117 241V527c0 67.3 26.2 130.6 73.8 178.2S301.7 779 369 779h175.3c16.6 0 30-13.4 30-30s-13.4-30-30-30H369c-105.9 0-192-86.1-192-192v-286c0-105.9 86.1-192 192-192h286c105.9 0 192 86.1 192 192V407.4c0 16.6 13.4 30 30 30s30-13.4 30-30V241c0-67.3-26.2-130.6-73.8-178.2C785.6 15.200000000000045 722.3-11 655-11zM531.4 403.4c-11.7 11.7-11.7 30.7 0 42.4l324.4 324.4c11.7 11.7 30.7 11.7 42.4 0s11.7-30.7 0-42.4L573.8 403.4c-11.7-11.7-30.7-11.7-42.4 0z"  horiz-adv-x="1024" />

    
    <glyph glyph-name="dayincopy" unicode="&#58978;" d="M827 633H197c-55.2 0-100-44.8-100-100v-298c0-55.2 44.8-100 100-100h24.5v83.1c0 45.8 37.2 82.9 83.2 82.9h190.6c37.8 73.9 114.7 124.5 203.4 124.5 118.4 0 215.7-90.1 227.1-205.5 0.7 4.9 1.1 9.9 1.1 15V533c0.1 55.2-44.7 100-99.9 100zM844.4 633H179.6c-45.3 0-82.6-37.3-82.6-83.4v-331.3c0-45.9 37-83.4 82.6-83.4h41.9v41.5h-41.9c-22.6 0-41.1 18.7-41.1 41.9V549.6c0 23.1 18.7 41.9 41.1 41.9h664.8c22.6 0 41.1-18.7 41.1-41.9v-221.1c23.8-33.8 38.6-74.3 41.1-118.1 0.2 2.6 0.4 5.3 0.4 8V549.6c0 46-37 83.4-82.6 83.4zM844.4 633h-41.9v82.8c0 46-37.3 83.2-83.2 83.2H304.7c-46 0-83.2-37.3-83.2-83.2V633h-41.9c-45.3 0-82.6-37.3-82.6-83.4v-331.3c0-45.9 37-83.4 82.6-83.4h41.9v-83.1c0-46.1 37.3-82.9 83.2-82.9h394c-48.9 0-94.1 15.4-131.2 41.5H304.7c-23.2 0-41.7 18.4-41.7 41.4V218.10000000000002c0 22.9 18.6 41.4 41.7 41.4h174.4c4.1 14.5 9.6 28.4 16.3 41.5H304.7c-46 0-83.2-37.1-83.2-82.9v-41.6h-41.9c-22.6 0-41.1 18.7-41.1 41.9V549.6c0 23.1 18.7 41.9 41.1 41.9h664.8c22.6 0 41.1-18.7 41.1-41.9v-221.1c23.8-33.8 38.6-74.3 41.1-118.1 0.2 2.6 0.4 5.3 0.4 8V549.6c0 46-37 83.4-82.6 83.4zM263 633v82.8c0 23.1 18.7 41.7 41.7 41.7h414.5c23.1 0 41.7-18.7 41.7-41.7V633H263zM263 467m-41.5 0a41.5 41.5 0 1 1 83 0 41.5 41.5 0 1 1-83 0ZM698.8 425.5c-126.1 0-228.2-102.2-228.2-228.2S572.7-31 698.8-31 927 71.20000000000005 927 197.20000000000005 824.8 425.5 698.8 425.5z m0-415c-103.1 0-186.8 83.6-186.8 186.8S595.6 384 698.8 384s186.8-83.6 186.8-186.8-83.7-186.7-186.8-186.7zM625.4 300c-8.1 8.1-21.2 8.1-29.3 0-8.1-8.1-8.1-21.2 0-29.3l176.1-176.1c8.1-8.1 21.2-8.1 29.3 0 8.1 8.1 8.1 21.2 0 29.3L625.4 300z"  horiz-adv-x="1024" />

    
    <glyph glyph-name="youhuixinxi" unicode="&#58979;" d="M775.1 685.7c102.4-102.4 102.4-268.3 0-370.7l-346-346L83.7 314.4 457 687.7s193.1 78 233.9 37.3l84.2-39.3zM575.2 460.5c22-22 57.7-22 79.7 0s22 57.7 0 79.7-57.7 22-79.7 0-22-57.7 0-79.7zM429.1 22.1l332.3 332.3c80.6 80.6 80.5 211.4-0.2 292.1-80.6 80.6-211.5 80.7-292.1 0.2L136.8 314.4l292.3-292.3z m13.4 651.1c95.3 95.3 250 95 345.2-0.2 95.4-95.4 95.4-249.9 0.2-345.2L429.1-31 83.7 314.4l358.8 358.8z m212.4-212.7c22 22 22 57.7 0 79.7s-57.7 22-79.7 0-22-57.7 0-79.7 57.7-22 79.7 0z m-106.3-26.6c-36.7 36.7-36.7 96.1 0 132.8s96.1 36.7 132.8 0c36.7-36.7 36.7-96.1 0-132.8-36.6-36.6-96.1-36.6-132.8 0zM774.6 739.6c29.1 29.1 76.8 29.1 106.1-0.2 29.4-29.4 29.4-76.8-0.1-106.4l-55.4-55.4 26.6-26.6 55.4 55.4c44.3 44.3 44.1 115.5 0.1 159.5-43.9 43.9-115.4 44-159.4 0L553.4 569.4l49.8-3 171.4 173.2z m0 0c29.1 29.1 76.8 29.1 106.1-0.2 29.4-29.4 29.4-76.8-0.1-106.4l-55.4-55.4 26.6-26.6 55.4 55.4c44.3 44.3 44.1 115.5 0.1 159.5-43.9 43.9-115.4 44-159.4 0L553.4 569.4l49.8-3 171.4 173.2zM269.6 394.1l26.6-26.6-26.6-26.6-26.6 26.6 26.6 26.6z m53.2-53.2l26.6-26.6-26.6-26.6-26.6 26.6 26.6 26.6z m53.1-53.1l26.6-26.6-26.6-26.6-26.6 26.6 26.6 26.6z m53.2-53.1l26.6-26.6-26.6-26.6-26.6 26.6 26.6 26.6z m53.1-53.2l26.6-26.6-26.6-26.6-26.6 26.7 26.6 26.5z"  horiz-adv-x="1024" />

    
    <glyph glyph-name="sousuo" unicode="&#58648;" d="M647.3 248.70000000000005C754 355.4 754 528.3 647.3 635S367.7 741.6 261 635s-106.7-279.6 0-386.3 279.6-106.6 386.3 0z m28-87.4c-140.2-110.8-344.2-101.4-473.7 28-139.5 139.5-139.5 365.6 0 505.1s365.6 139.5 505.1 0c129.4-129.4 138.8-333.5 28-473.7l180-180c16.4-16.4 16.4-43 0-59.4s-43-16.4-59.4 0l-180 180z"  horiz-adv-x="1024" />

    
    <glyph glyph-name="canzhao" unicode="&#58981;" d="M176 384m-72 0a72 72 0 1 1 144 0 72 72 0 1 1-144 0ZM392 624h480c26.5 0 48 21.5 48 48s-21.5 48-48 48H392c-26.5 0-48-21.5-48-48s21.5-48 48-48zM176 96m-72 0a72 72 0 1 1 144 0 72 72 0 1 1-144 0ZM176 672m-72 0a72 72 0 1 1 144 0 72 72 0 1 1-144 0ZM872 432H392c-26.5 0-48-21.5-48-48s21.5-48 48-48h480c26.5 0 48 21.5 48 48s-21.5 48-48 48zM872 144H392c-26.5 0-48-21.5-48-48s21.5-48 48-48h480c26.5 0 48 21.5 48 48s-21.5 48-48 48z"  horiz-adv-x="1024" />

    
    <glyph glyph-name="riqi" unicode="&#58977;" d="M512 294.7m-44.4 0a44.4 44.4 0 1 1 88.8 0 44.4 44.4 0 1 1-88.8 0ZM734.2 294.7m-44.4 0a44.4 44.4 0 1 1 88.8 0 44.4 44.4 0 1 1-88.8 0ZM512 116.9m-44.4 0a44.4 44.4 0 1 1 88.8 0 44.4 44.4 0 1 1-88.8 0ZM778.7 739.1h-88.9V805.8c0 12.3-9.9 22.2-22.2 22.2s-22.2-9.9-22.2-22.2v-66.7H378.7V805.8c0 12.3-9.9 22.2-22.2 22.2s-22.2-9.9-22.2-22.2v-66.7h-88.9c-73.6 0-133.3-59.7-133.3-133.3v-533.3c0-73.6 59.7-133.3 133.3-133.3h533.3c73.6 0 133.3 59.7 133.3 133.3V605.8c0 73.6-59.7 133.3-133.3 133.3z m88.9-666.7c0-49.1-39.8-88.9-88.9-88.9H245.3c-49.1 0-88.9 39.8-88.9 88.9V428h711.1v-355.6z m0 400H156.4V605.8c0 49.1 39.8 88.9 88.9 88.9h88.9V628c0-12.3 9.9-22.2 22.2-22.2s22.2 9.9 22.2 22.2v66.7h266.7V628c0-12.3 9.9-22.2 22.2-22.2s22.2 9.9 22.2 22.2v66.7h88.9c49.1 0 88.9-39.8 88.9-88.9v-133.4zM289.8 294.7m-44.4 0a44.4 44.4 0 1 1 88.8 0 44.4 44.4 0 1 1-88.8 0ZM289.8 116.9m-44.4 0a44.4 44.4 0 1 1 88.8 0 44.4 44.4 0 1 1-88.8 0Z"  horiz-adv-x="1024" />

    
    <glyph glyph-name="chuzhiqia" unicode="&#58980;" d="M512-31C282.8-31 97 154.79999999999995 97 384S282.8 799 512 799s415-185.8 415-415-185.8-415-415-415zM280.1 570.8c-21.3 0-38.6-18.6-38.6-41.5v-290.5c0-22.9 17.3-41.5 38.6-41.5h463.7c21.3 0 38.6 18.6 38.6 41.5V529.2c0 22.9-17.3 41.5-38.6 41.5H280.1zM490.5 273c-0.3-2.7-1.1-5.3-2.5-7.7-1.7-1.7-3.9-2.9-6.3-3.4-4.3-1.3-8.7-2.4-13.2-3.2-12.1-2.1-24.3-3.7-36.5-4.8-6.4-0.6-12.6-1.1-18.6-1.4-6-0.4-11.2-0.6-15.7-0.6s-9.7 0.2-15.6 0.6c-12.4 0.8-24.7 1.9-37 3.3-5.7 0.6-11.3 1.4-17 2.3-4.4 0.7-8.7 1.6-13 2.6-2.3 0.4-4.6 1.2-6.6 2.4-2.2 3.6-3.4 7.7-3.5 12-0.8 8.5-0.6 17.2 0.8 25.6 0.5 5.3 3 10.2 6.9 13.7 4 3.2 8.4 5.7 13.2 7.4 5.1 1.9 10.3 3.6 15.6 5 5.1 1.3 9.9 3.5 14.2 6.4 2.7 1.8 5.2 3.9 7.4 6.3 1.6 1.7 2.8 3.6 3.8 5.7 0.8 1.9 1.2 3.9 1.2 6s0 4.5-0.3 7.1c-0.2 3.3-1.5 6.5-3.8 8.9-2.2 2.3-4.6 4.4-7.1 6.4-1.4 1.4-2.6 3-3.4 4.8-1 2-1.8 4.1-2.5 6.3-0.8 2.5-1.5 5.1-2.2 7.7-1.2 0.4-2.3 1-3.3 1.7-1.1 1-2.1 2.2-2.9 3.4-1.2 1.9-2.2 4.1-2.9 6.3-1.6 4.3-1.5 9.1 0.2 13.3 0.7 1.9 1.7 3.6 3 5.1-0.2 6.2 0.1 12.3 0.8 18.5 0.8 5.6 1.9 11.2 3.4 16.6 1.5 5.7 3.9 11.2 7.2 16.1 2.6 4.2 5.9 8 9.8 11.1 3.4 2.7 7.1 5 11.1 6.7 3.6 1.6 7.5 2.7 11.4 3.3 3.6 0.6 7.2 0.8 10.8 0.9 8.6 0.1 17.1-1.9 24.7-6 6.2-3.1 11.6-7.5 16-12.8 4-5.1 7-11 8.8-17.2 1.8-5.8 3.2-11.8 4.2-17.8 0.9-6.4 1.3-12.9 1.1-19.4 1-0.9 1.8-2 2.5-3.1 1.6-3.4 2.2-7.3 1.6-11.1-0.2-2.9-1-5.7-2.2-8.2-0.9-1.8-2-3.4-3.3-4.8-1.2-1.3-2.7-2.2-4.3-2.6-0.7-2.9-1.4-5.4-2.1-7.7-0.8-2.2-1.7-4.3-2.7-6.3-0.8-1.8-2-3.3-3.5-4.6-1.3-1.2-2.6-2.3-3.9-3.5-1.1-0.9-2.2-1.9-3.1-3-2-2.4-3.4-5.3-3.8-8.4-0.4-2.5-0.5-5-0.4-7.6 0.2-5.7 2.8-11 7.1-14.7 3-2.6 6.4-4.6 10.2-6 4.1-1.8 8.3-3.3 12.6-4.4 4.5-1.2 9-2.7 13.3-4.4 4.1-1.6 7.9-3.8 11.4-6.6 3.3-2.7 5.8-6.2 7.2-10.3 0.8-3.2 1.4-6.4 1.8-9.7 0.4-3.8 0.6-7.7 0.6-11.6 0.1-3.4-0.2-7-0.7-10.6z m83.7 173.2h124.5c11.5 0 20.8-9.3 20.8-20.8s-9.3-20.8-20.8-20.8H574.2c-11.5 0-20.8 9.3-20.8 20.8s9.4 20.8 20.8 20.8z m0-103.7h124.5c11.5 0 20.8-9.3 20.8-20.8s-9.3-20.8-20.8-20.8H574.2c-11.5 0-20.8 9.3-20.8 20.8s9.4 20.8 20.8 20.8z"  horiz-adv-x="1024" />

    
    <glyph glyph-name="zhifubao" unicode="&#58983;" d="M251.576 236.87099999999998c0 56.588 41.472 86.77 71.63 90.547 90.48 15.092 214.896-60.36 214.896-60.36C481.55 195.37400000000002 402.375 157.64999999999998 342.057 157.64999999999998c-52.78 3.765-90.481 33.952-90.481 79.221z m640.92-30.183c-11.315 3.778-267.679 83.002-260.139 90.552 37.702 45.27 64.093 150.91 64.093 150.91v22.635H545.647V527.37h184.74v33.955h-184.74v83.002h-75.404v-79.23H304.359v-33.955h165.884v-56.588H338.29v-22.637h271.445c0-11.318-18.847-86.77-37.702-120.726-3.766 7.546-124.412 49.047-192.275 52.816-71.63-3.774-128.183-26.41-154.574-79.23-37.702-98.089 22.621-196.182 158.343-196.182 22.622 0 131.953 11.319 214.897 124.504 22.621-11.32 150.8-75.457 229.978-116.958-75.404-90.544-188.51-147.14-316.692-147.14-110.085-0.319-215.754 43.302-293.597 121.199-77.842 77.897-121.432 183.64-121.112 293.802-0.319 110.161 43.271 215.902 121.113 293.799 77.842 77.896 183.51 121.516 293.595 121.197 110.085 0.32 215.754-43.3 293.597-121.196 77.843-77.896 121.434-183.638 121.115-293.8 3.77-67.907-11.305-124.495-33.927-177.315z"  horiz-adv-x="1024" />

    
    <glyph glyph-name="weixin" unicode="&#58984;" d="M512-31C282.802-31 97 154.80200000000002 97 384S282.802 799 512 799s415-185.802 415-415-185.802-415-415-415z m-71.931 347.816c-9.263-4.715-20.633-1.284-25.662 7.746l-1.431 2.839L360.2 442.018a7.976 7.976 0 0 0-1.085 3.873c0 5.292 4.281 9.528 9.644 9.528a9.944 9.944 0 0 0 5.695-1.762l62.417-43.734c7.612-4.955 17.16-6.001 25.682-2.82L756.441 536.1800000000001c-52.792 61.354-139.44 101.235-237.531 101.235-160.18 0.343-290.325-106.873-290.325-239.13 0-71.957 39.236-137.204 100.222-180.939 4.997-3.527 8.213-9.51 8.213-15.531 0-2.108-0.369-4.22-1.084-6.327l-13.19-48.316c-0.716-2.11-1.434-4.601-1.434-7.058 0-5.29 4.281-9.528 9.627-9.528 2.13 0 3.93 0.709 5.712 1.765l63.484 36.331c4.647 2.82 9.993 4.22 15.34 4.584 2.844 0 5.711-0.365 8.559-1.419 31.025-8.82 62.766-13.039 94.876-13.039 160.491 0 290.675 107.22 290.675 239.477 0 39.495-11.776 77.94-33.177 111.09L441.87 318.21400000000006l-1.78-1.4h-0.02z"  horiz-adv-x="1024" />

    
    <glyph glyph-name="yinhangqia" unicode="&#58985;" d="M240.3 664h223.3c31.2 0 50.6-25.5 43.3-56.8l-104-446.3c-7.3-31.2-38.5-56.6-69.7-56.6H109.8c-31.2 0-50.5 25.4-43.3 56.6l104 446.3c7.3 31.3 38.5 56.8 69.8 56.8M445.1 664h256.8c31.1 0 17.1-25.5 9.8-56.8l-104-446.3c-7.3-31.2-5-56.6-36.2-56.6H314.6c-31.3 0-50.6 25.4-43.3 56.6l103.9 446.3c7.5 31.3 38.6 56.8 69.9 56.8M691.7 664H915c31.2 0 50.6-25.5 43.3-56.8l-104-446.3c-7.3-31.2-38.5-56.6-69.8-56.6H561.3c-31.3 0-50.6 25.4-43.3 56.6l103.9 446.3c7.4 31.3 38.5 56.8 69.8 56.8M719.2 334.4l-27.2-90h7.3l-5.7-18.6h-7.3l-1.7-5.8h-25.9l1.8 5.8h-52.7l5.3 17.2h5.3l27.6 91.4 5.5 18.5H678l-2.8-9.3s7.1 5.1 13.8 6.8c6.6 1.7 45 2.4 45 2.4l-5.7-18.3h-9.1z m-46.6 0l-7-23s7.8 3.5 12.1 4.7c4.4 1.1 10.8 1.5 10.8 1.5l5 16.8h-20.9z m-10.5-34.5L655 276s8 4.1 12.3 5.4c4.3 1 10.9 1.8 10.9 1.8l5.1 16.8h-21.2z m-16.8-55.8h21.1l6.1 20.2h-21l-6.2-20.2zM730.8 352.70000000000005H759l0.3-10.5c-0.1-1.8 1.4-2.6 4.7-2.6h5.7l-5.2-17.4h-15.3c-13.2-1-18.2 4.7-17.9 11.1l-0.5 19.4zM734.5 270.4h-26.8l4.6 15.5H743l4.4 14.1H717l5.2 17.4h84.4l-5.3-17.4H773l-4.4-14.1H797l-4.7-15.5h-30.7l-5.5-6.6h12.5l3-19.4c0.4-1.9 0.4-3.2 1-4 0.6-0.7 4.3-1.1 6.6-1.1h3.7l-5.7-18.9h-9.6c-1.5 0-3.7 0.1-6.7 0.3-2.9 0.2-4.9 1.9-6.9 2.9-1.7 0.8-4.3 3-5 6.6l-3 19.4-13.9-19.1c-4.4-6.1-10.5-10.7-20.6-10.7H692l5.1 16.9h7.5c2.2 0 4.1 0.9 5.5 1.5 1.5 0.6 2.7 1.4 4.2 3.5l20.2 28.7zM440.2 312.70000000000005h71.2l-5.3-17h-28.5l-4.4-14.5h29.1l-5.3-17.5h-29.1l-7.1-23.5c-0.8-2.6 6.9-3 9.7-3l14.5 2-5.8-19.4h-32.8c-2.6 0-4.6 0.4-7.5 1-2.8 0.7-4 1.9-5.2 3.8-1.2 1.9-3 3.5-1.8 7.6l9.4 31.2h-16.2l5.4 17.8h16.3l4.3 14.5H435l5.2 17zM488.1 343.20000000000005h29.2l-5.4-17.8h-39.8l-4.4-3.7c-1.8-1.8-2.5-1.1-4.9-2.4-2.2-1.1-7-3.4-13.2-3.4h-12.8L442 333h3.9c3.3 0 5.5 0.3 6.6 1 1.3 0.8 2.7 2.6 4.3 5.5l7.3 13.3h29.1l-5.1-9.6zM529.8 352.70000000000005h24.9l-3.6-12.5s7.8 6.2 13.3 8.5c5.5 2 17.9 3.9 17.9 3.9l40.2 0.2-13.7-45.6c-2.3-7.9-5-12.9-6.6-15.2-1.5-2.3-3.3-4.3-6.8-6.2-3.4-1.8-6.5-2.9-9.4-3.2-2.6-0.2-6.7-0.3-12.3-0.3h-38.8L524 246.20000000000005c-1-3.6-1.5-5.3-0.8-6.3 0.6-0.8 1.9-1.9 3.7-1.9l17.1 1.6-5.8-19.8H519c-6.1 0-10.5 0.1-13.6 0.4-3 0.2-6 0-8.1 1.6-1.8 1.6-4.5 3.6-4.4 5.7 0.2 2 1 5.2 2.2 9.6l34.7 115.6z m52.8-46.1h-40.8l-2.5-8.2h35.3c4.2 0.5 5.1-0.1 5.4 0.1l2.6 8.1z m-38.5 7.4s8 7.2 21.6 9.6c3.1 0.6 22.5 0.4 22.5 0.4l2.9 9.7H550l-5.9-19.7zM602.3 279l-2.3-11c-1-3.4-1.9-6-4.4-8.2-2.7-2.3-5.9-4.7-13.4-4.7l-13.8-0.5-0.1-12.4c-0.2-3.6 0.7-3.2 1.3-3.7 0.6-0.6 1.2-0.9 1.8-1.1l4.4 0.2 13.2 0.7-5.4-18.1h-15.2c-10.6 0-18.5 0.2-21 2.3-2.6 1.6-2.9 3.6-2.8 7.1l1 48.4h24.2l-0.4-9.9h5.8c2 0 3.3 0.2 4.2 0.8 0.7 0.5 1.2 1.3 1.6 2.5l2.4 7.7h18.9zM308.4 521.4c-0.9-3.9-16.4-75.4-16.5-75.4-3.3-14.5-5.7-24.8-13.9-31.4-4.7-3.9-10.2-5.8-16.5-5.8-10.1 0-16.1 5.1-17.1 14.7l-0.2 3.3s3 19.4 3.1 19.5c0 0 16.2 65.2 19.2 73.8 0.1 0.5 0.2 0.7 0.3 1-31.7-0.3-37.3 0-37.7 0.5-0.2-0.6-1-4.7-1-4.7l-16.6-73.4-1.5-6.5-2.7-20.4c0-6 1.2-10.9 3.5-15.1 7.6-13.3 29.1-15.2 41.3-15.2 15.8 0 30.5 3.3 40.4 9.4 17.3 10.2 21.9 26.3 25.9 40.4l1.9 7.3s16.8 67.7 19.6 76.5c0.1 0.5 0.1 0.7 0.2 1-22.7-0.2-29.5 0-31.7 0.5M423.2 479.5c-2-8.9-7.8-16.4-15.2-20.1-6.2-3.1-13.7-3.3-21.5-3.3h-5l0.4 2s9.3 40.3 9.2 40.1l0.2 2.1 0.2 1.6 3.7-0.4s19-1.7 19.5-1.7c7.6-2.9 10.7-10.5 8.5-20.3m-12.2 42l-9.3-0.1c-24.3-0.3-34-0.2-38 0.3-0.3-1.8-1-4.9-1-4.9s-8.6-40.3-8.6-40.4c0 0-20.8-85.7-21.8-89.8 21.1 0.2 29.9 0.2 33.5-0.1 0.9 4 5.8 28 5.9 28 0 0 4.2 17.6 4.4 18.2 0 0 1.3 1.8 2.7 2.6h1.9c18.3 0 38.9 0 55.1 11.9 10.9 8.2 18.5 20.2 21.9 34.8 0.9 3.6 1.5 8 1.5 12.2 0 5.6-1.1 11.1-4.4 15.5-8.4 11.5-24.8 11.7-43.8 11.8M491.9 409.6c-11.6 29.2 20.6 52.9 52.4 39.3v0.1l6.5 22.8c-93.6 42.7-152.4-115.5-26.2-91.8l7.4 25.8c-12.6-2.2-33.7-7.1-40.1 3.8M593.1 400.1c-1.1 0-7.7 0-7.6 9.7 0.1 4.8 1.3 9.8 2.6 15.3 4.1 15.2 8.6 28.3 19.4 28.3 8.4 0 11.7-9.5 7.7-25.2-0.9-3.3-4.4-16.4-8.7-21.8-2.9-3.9-9.5-6.3-13.4-6.3z m69.1 75.3c-16.5-3.1-20.8-3.7-36.7-6l-1.2-1c-0.3-1.9-0.6-3.7-0.9-5.5-2.4 4.8-6.1 9-12.5 11.4-7.1 2.7-24.2-0.9-39.2-14-10.5-9.4-15.9-22.2-19.1-34.5-3.3-12.4-7.4-35.2 13.4-43.4 6.6-2.8 12.6-3.6 18.7-3.4 7.3 0.4 14.1 4.5 20.4 10-0.7-2.5-1.4-5-2.2-7.5l0.9-1.2c14.8 0.6 19.3 0.6 35.1 0.5l1.5 1.1c2.8 13.9 5.4 27.4 12.3 54 3.2 12.7 6.6 25.4 10 38l-0.5 1.5zM842.6 458.3c-3.5 4.4-12.2 6.8-18.9 7.1-5 0.2-9.7-0.5-14.2-2.3-4.5-1.7-9.5-4.6-14.9-8.7l12.4 44-25.7 0.9-37.2-127.2 25.7-0.9 12.5 39.1c3.1 11 5.4 18 7 20.9 2.8 5.3 6.6 9.8 11.4 13.3 3.6 2.7 7.4 4 11.1 3.8 3-0.1 5.2-1.1 6.8-3 1.6-1.9 2.2-4.3 2-7.3-0.1-1.6-1-5.4-2.6-11.1l-27.6-85c-0.7-1-1.4-1.7-2.3-1.9-1-0.5-7.7-0.5-9.5-0.5h-3.4l-5.1-16.8 17.4-0.3c10.2 0 20.9 0 27.3 12.3l28.7 90.1c2.1 7.5 3.3 13.1 3.6 16.7 0.5 6.9-1 12.4-4.5 16.8M720.3 447.4c7-1.2 13.7-4.3 23.7-5.1l5.9 23.6c-53.2 22.4-96.1-18.7-70.6-43.8 10.2-8.2 18.7-7.2 26.2-10.4 7.8-8.3-1.4-12.4-23.5-8.4 0 0-14 2.4-20.6 3.6l-5.9-26.6c42.4-11 92.5-4.1 81.1 38.7-4 7.4-18.9 13.9-18.9 13.9-1.5 0.6-13.3 2.2-10.2 10.8 2.2 6.2 12.8 3.7 12.8 3.7"  horiz-adv-x="1024" />

    
    <glyph glyph-name="tongyongzhifufang" unicode="&#58986;" d="M548.1 402h117.3c14.9 0 27.1 12.1 27.1 27.1 0 14.9-12.1 27.1-27.1 27.1H376.7c-14.9 0-27.1-12.1-27.1-27.1 0-14.9 12.1-27.1 27.1-27.1H494v-90.2H376.7c-14.9 0-27.1-12.1-27.1-27.1s12.1-27.1 27.1-27.1H494v-81.2c0-14.9 12.1-27.1 27.1-27.1s27.1 12.1 27.1 27.1v81.2h117.3c14.9 0 27.1 12.1 27.1 27.1s-12.1 27.1-27.1 27.1H548.1V402zM512-31C282.8-31 97 154.79999999999995 97 384S282.8 799 512 799s415-185.8 415-415-185.8-415-415-415z m-63.2 631.5c-14.9 0-27.1-12.1-27.1-27.1v-54.1c0-14.9 12.1-27.1 27.1-27.1 14.9 0 27.1 12.1 27.1 27.1v54.1c0 15-12.1 27.1-27.1 27.1z m144.4 0c-14.9 0-27.1-12.1-27.1-27.1v-54.1c0-14.9 12.1-27.1 27.1-27.1 14.9 0 27.1 12.1 27.1 27.1v54.1c0 15-12.2 27.1-27.1 27.1z"  horiz-adv-x="1024" />

    
    <glyph glyph-name="nan" unicode="&#58987;" d="M511.7 195.4C346.2 195.4 212 330.5 212 497.2S346.2 799 511.7 799s299.7-135.1 299.7-301.8-134.1-301.8-299.7-301.8z m0-113.2L324.4-31V195.4l187.3-113.2z m0 0L699 195.4V-31L511.7 82.2zM375.3 421.7c17.8-63.3 75.6-109.6 144.2-109.6s126.3 46.3 144.2 109.6c-41.4-21.6-90.9-34.1-144.2-34.1-53.2 0-102.8 12.5-144.2 34.1z"  horiz-adv-x="1024" />

    
    <glyph glyph-name="nv" unicode="&#58988;" d="M511.7-31C346.2-31 212 104.1 212 270.8s134.2 301.8 299.7 301.8 299.7-135.1 299.7-301.8S677.3-31 511.7-31z m0 716.8L324.4 572.6V799l187.3-113.2z m0 0L699 799v-226.4L511.7 685.8zM375.3 195.4c17.8-63.3 75.6-109.6 144.2-109.6s126.3 46.3 144.2 109.6c-41.4-21.6-90.9-34.1-144.2-34.1-53.2-0.1-102.8 12.5-144.2 34.1z"  horiz-adv-x="1024" />

    
    <glyph glyph-name="chenggongtishi" unicode="&#58990;" d="M512-31C282.8-31 97 154.8 97 384S282.8 799 512 799s415-185.8 415-415-185.8-415-415-415zM341.7 448.5c-13.3 13.6-34.8 13.6-48 0-13.3-13.6-13.3-35.6 0-49.1l184.1-188.3L758 497.6c13.3 13.6 13.3 35.6 0 49.1-13.3 13.6-34.8 13.6-48 0L477.8 309.3 341.7 448.5z"  horiz-adv-x="1024" />

    
    <glyph glyph-name="tongzhixinxi" unicode="&#58991;" d="M512 799C282.8 799 97 613.2 97 384s185.8-415 415-415 415 185.8 415 415S741.2 799 512 799z m0-622.5c-19.1 0-34.6 15.5-34.6 34.6V418.6c0 19.1 15.5 34.6 34.6 34.6s34.6-15.5 34.6-34.6v-207.5c0-19.1-15.5-34.6-34.6-34.6z m0 345.8c-19.1 0-34.6 15.5-34.6 34.6s15.5 34.6 34.6 34.6 34.6-15.5 34.6-34.6-15.5-34.6-34.6-34.6z"  horiz-adv-x="1024" />

    
    <glyph glyph-name="tishi" unicode="&#58992;" d="M512-31C282.8-31 97 154.79999999999995 97 384S282.8 799 512 799s415-185.8 415-415-185.8-415-415-415z m0 622.5c-19.1 0-34.6-15.5-34.6-34.6v-207.5c0-19.1 15.5-34.6 34.6-34.6s34.6 15.5 34.6 34.6V556.9c0 19.1-15.5 34.6-34.6 34.6z m0-345.8c-19.1 0-34.6-15.5-34.6-34.6s15.5-34.6 34.6-34.6 34.6 15.5 34.6 34.6-15.5 34.6-34.6 34.6z"  horiz-adv-x="1024" />

    
    <glyph glyph-name="cuowutishi" unicode="&#58993;" d="M512-31C282.8-31 97 154.8 97 384S282.8 799 512 799s415-185.8 415-415-185.8-415-415-415z m49.2 414.7L683.5 506c13.5 13.5 13.5 35.4 0 48.9s-35.4 13.5-48.9 0L512.3 432.6 390 554.9c-13.5 13.5-35.4 13.5-48.9 0s-13.5-35.4 0-48.9l122.3-122.3-122.3-122.3c-13.5-13.5-13.5-35.4 0-48.9s35.4-13.5 48.9 0l122.3 122.3 122.3-122.3c13.5-13.5 35.4-13.5 48.9 0s13.5 35.4 0 48.9L561.2 383.7z"  horiz-adv-x="1024" />

    
    <glyph glyph-name="jia" unicode="&#58666;" d="M408.2 487.8H200.8C143.5 487.8 97 441.3 97 384s46.5-103.8 103.8-103.8h207.5v-207.5c0-57.3 46.5-103.8 103.8-103.8s103.8 46.5 103.8 103.8V280.20000000000005h207.5c57.3 0 103.8 46.5 103.8 103.8s-46.5 103.8-103.8 103.8H615.8V695.2C615.8 752.5 569.3 799 512 799s-103.8-46.5-103.8-103.8v-207.4z"  horiz-adv-x="1024" />

    
    <glyph glyph-name="jian" unicode="&#58994;" d="M197 488h630c55.2 0 100-44.8 100-100v-7.5c0-55.2-44.8-100-100-100H197c-55.2 0-100 44.8-100 100V388c0 55.2 44.8 100 100 100z"  horiz-adv-x="1024" />

    
    <glyph glyph-name="xuanzhong" unicode="&#58995;" d="M819.8 662.4C743.8 746.3 634.1 799 512 799 282.8 799 97 613.2 97 384s185.8-415 415-415 415 185.8 415 415c0 79.7-22.5 154.2-61.5 217.5L461.3 197.3l-240.1 240c-14.7 14.7-14.7 38.6 0 53.4 14.7 14.7 38.6 14.7 53.4 0L461.3 304l358.5 358.4z"  horiz-adv-x="1024" />

    
    <glyph glyph-name="xiugaimima" unicode="&#58371;" d="M307.5 347.20000000000005c-46.3-46.3-46.3-121.4 0-167.7 46.3-46.3 121.4-46.3 167.7 0 46.3 46.3 46.3 121.4 0 167.7-46.3 46.3-121.4 46.3-167.7 0z m125.7-125.8c-23.2-23.2-60.7-23.2-83.8 0s-23.2 60.7 0 83.8 60.7 23.2 83.8 0 23.2-60.6 0-83.8zM810.5 556.8l62.9 62.9c34.7 34.7 34.7 91 0 125.8-34.7 34.7-91 34.7-125.8 0L506.4 504.1c-101.8 48.6-223.5 28-303.7-52.1-104.2-104.2-104.2-273.1 0-377.3s273.1-104.2 377.3 0c80.1 80.1 100.8 201.9 52.1 303.7l52.7 52.7 62.9-62.9c34.7-34.7 91-34.7 125.8 0 34.7 34.7 34.7 91 0 125.8l-63 62.8z m21-146.8c-11.6-11.6-30.3-11.6-41.9 0L684.8 514.8 560.5 390.6l18.1-37.8c37.6-78.7 22.1-173.5-40.6-236.2-81-81-212.4-81-293.4 0s-81 212.4 0 293.4c62.7 62.7 157.5 78.2 236.2 40.6l37.8-18.1 270.9 270.9c11.6 11.6 30.3 11.6 41.9 0 11.6-11.6 11.6-30.3 0-41.9L726.7 556.8 831.5 452c11.6-11.6 11.6-30.4 0-42z"  horiz-adv-x="1024" />

    
    <glyph glyph-name="tuichudenglu" unicode="&#58370;" d="M716.9 630.3c-13.4 9.4-31.9 6.2-41.3-7.1-9.4-13.4-6.2-31.9 7.1-41.3 78.3-55.2 125.8-144.8 125.8-242.4 0-163.7-132.7-296.4-296.4-296.4S215.7 175.70000000000005 215.7 339.5c0 98.4 48.2 188.6 127.5 243.7 13.4 9.3 16.8 27.8 7.4 41.3-9.3 13.4-27.8 16.8-41.3 7.4-95.1-66.1-153-174.3-153-292.3 0-196.5 159.3-355.7 355.7-355.7s355.7 159.3 355.7 355.7c0.1 117-56.9 224.5-150.8 290.7zM512.1 369.1c16.4 0 29.6 13.3 29.6 29.6V754.5c0 16.4-13.3 29.6-29.6 29.6s-29.6-13.3-29.6-29.6v-355.7c0-16.4 13.2-29.7 29.6-29.7z"  horiz-adv-x="1024" />

    
    <glyph glyph-name="gerenxinxi" unicode="&#58369;" d="M897.4 591.5H778.8c-16.4 0-29.6-13.3-29.6-29.6s13.3-29.6 29.6-29.6h118.6c16.4 0 29.6 13.3 29.6 29.6s-13.3 29.6-29.6 29.6zM778.8 650.7h118.6c16.4 0 29.6 13.3 29.6 29.6 0 16.4-13.3 29.6-29.6 29.6H778.8c-16.4 0-29.6-13.3-29.6-29.6-0.1-16.3 13.2-29.6 29.6-29.6zM897.4 472.9H778.8c-16.4 0-29.6-13.3-29.6-29.6 0-16.4 13.3-29.6 29.6-29.6h118.6c16.4 0 29.6 13.3 29.6 29.6s-13.3 29.6-29.6 29.6zM574.8 343.6c34.3 32.4 55.8 78.4 55.8 129.3V591.5c0 98.2-79.6 177.9-177.9 177.9s-177.9-79.6-177.9-177.9v-118.6c0-51 21.4-96.9 55.8-129.3C194.3 318.70000000000005 97 253.20000000000005 97 176.5v-118.6c0-32.7 26.5-59.3 59.3-59.3h592.9c32.7 0 59.3 26.5 59.3 59.3V176.5c-0.1 76.7-97.4 142.2-233.7 167.1zM334.1 591.5c0 65.5 53.1 118.6 118.6 118.6S571.3 657 571.3 591.5v-118.6c0-65.5-53.1-118.6-118.6-118.6s-118.6 53.1-118.6 118.6V591.5z m415-533.6H156.3V176.5c0 54.3 128.5 118.6 296.4 118.6s296.4-64.3 296.4-118.6v-118.6z"  horiz-adv-x="1024" />

    
    <glyph glyph-name="shanchu1" unicode="&#58999;" d="M308.8 602.4c-4.6 0-8.9-2.1-11.6-5.8L143.6 392.8c-3.9-5.2-3.9-12.3 0-17.5l153.5-203.9c2.8-3.7 7.1-5.8 11.6-5.8h559.9c8 0 14.6 6.5 14.6 14.6V587.9c0 8-6.5 14.6-14.6 14.6H308.8z m0 43.7h559.9c32.2 0 58.3-26.1 58.3-58.3V180c0-32.2-26.1-58.3-58.3-58.3H308.8c-18.3 0-35.5 8.6-46.5 23.2L108.7 349c-15.6 20.7-15.6 49.3 0 70.1L262.2 623c11.1 14.5 28.3 23.1 46.6 23.1z m290.6-271.7l93.8 93.8c7.4 7.4 7.4 19.4 0 26.8-7.4 7.4-19.4 7.4-26.8 0l-93.8-93.8-93.7 93.8c-7.4 7.4-19.4 7.4-26.8 0-7.4-7.4-7.4-19.4 0-26.8l93.8-93.8-93.8-93.8c-7.4-7.4-7.4-19.4 0-26.8s19.4-7.4 26.8 0l93.8 93.8 93.8-93.8c7.4-7.4 19.4-7.4 26.8 0 7.4 7.4 7.4 19.4 0 26.8l-93.9 93.8z"  horiz-adv-x="1024" />

    
    <glyph glyph-name="quanbushanchu" unicode="&#59000;" d="M533.2 749c-108.2 0-192.8-36.4-251.9-111.2-54.1-66.9-80.7-152.5-80.7-256.8s25.6-188.9 78.7-253.8C337.4 55.4 421 19 530.2 19c74.8 0 139.7 21.6 193.8 63.9 45.7 35.6 78 82.8 97.3 141.2 8.1 24.5-10 49.7-35.7 49.7h-0.3c-16.5 0-30.9-10.8-36-26.5-15.4-48.1-41.3-85.5-76.4-112.3-39.4-29.5-86.6-44.3-142.7-44.3-82.6 0-144.6 27.5-187.9 81.7-41.3 51.2-61 121-61 208.6s20.7 157.4 62 210.5c44.3 57.1 107.2 85.6 188.9 85.6 55.1 0 101.3-12.8 139.7-39.4 32.5-22.7 55.6-53.5 68.2-92.3 5-15.4 19.6-25.8 35.8-25.8h1.3c25.5 0 43.8 24.9 35.9 49.2C797.7 616.4 770 655.9 730 687c-53.2 41.3-119.1 62-196.8 62z"  horiz-adv-x="1024" />

    
    <glyph glyph-name="edit" unicode="&#58996;" d="M655-11H369c-67.3 0-130.6 26.2-178.2 73.8C143.2 110.39999999999998 117 173.70000000000005 117 241V527c0 67.3 26.2 130.6 73.8 178.2S301.7 779 369 779h175.3c16.6 0 30-13.4 30-30s-13.4-30-30-30H369c-105.9 0-192-86.1-192-192v-286c0-105.9 86.1-192 192-192h286c105.9 0 192 86.1 192 192V407.4c0 16.6 13.4 30 30 30s30-13.4 30-30V241c0-67.3-26.2-130.6-73.8-178.2C785.6 15.200000000000045 722.3-11 655-11zM531.4 403.4c-11.7 11.7-11.7 30.7 0 42.4l324.4 324.4c11.7 11.7 30.7 11.7 42.4 0s11.7-30.7 0-42.4L573.8 403.4c-11.7-11.7-30.7-11.7-42.4 0z"  horiz-adv-x="1024" />

    
    <glyph glyph-name="delete" unicode="&#58997;" d="M97 650.8c0 16.4 13 29.6 29.5 29.6h770.9c16.3 0 29.5-13.8 29.5-29.6 0-16.4-13-29.6-29.5-29.6H126.5c-16.3-0.1-29.5 13.7-29.5 29.6zM363.8 799h296.4c16.4 0 29.6-13.3 29.6-29.6s-13.3-29.6-29.6-29.6H363.8c-16.4 0-29.6 13.3-29.6 29.6S347.4 799 363.8 799z m385.3-740.7V532.2c0 16.4 13.3 29.6 29.6 29.6s29.6-13.3 29.6-29.6v-473.9c0-49.3-52.6-89.3-118.5-89.3H334.1c-65.5 0-118.5 40.1-118.5 89.3V532.2c0 16.4 13.3 29.6 29.6 29.6s29.6-13.3 29.6-29.6v-473.9c0-12.3 23.5-30 59.3-30h355.8c36.1 0 59.2 17.5 59.2 30zM423.1 502.6c16.4 0 29.6-13.3 29.6-29.6v-296.4c0-16.4-13.3-29.6-29.6-29.6-16.4 0-29.6 13.3-29.6 29.6V472.9c-0.1 16.4 13.2 29.7 29.6 29.7z m177.8 0c16.4 0 29.6-13.3 29.6-29.6v-296.4c0-16.4-13.3-29.6-29.6-29.6-16.4 0-29.6 13.3-29.6 29.6V472.9c0 16.4 13.3 29.7 29.6 29.7z"  horiz-adv-x="1024" />

    
    <glyph glyph-name="shanchucopy1" unicode="&#58989;" d="M571.6 196.5V739.7c0 32.7-26.5 59.3-59.3 59.3S453 772.5 453 739.7v-544.2L302.2 346.4c-23.2 23.2-60.7 23.2-83.8 0s-23.2-60.7 0-83.9L511.8-31l293.4 293.5c23.2 23.2 23.2 60.7 0 83.9s-60.7 23.2-83.8 0L571.6 196.5z"  horiz-adv-x="1024" />

    
    <glyph glyph-name="shanchucopy2" unicode="&#58998;" d="M571.6 571.5v-543.2c0-32.7-26.5-59.3-59.3-59.3S453-4.5 453 28.299999999999955V572.5L302.2 421.6c-23.2-23.2-60.7-23.2-83.8 0s-23.2 60.7 0 83.9L511.8 799l293.4-293.5c23.2-23.2 23.2-60.7 0-83.9s-60.7-23.2-83.8 0L571.6 571.5z"  horiz-adv-x="1024" />

    
    <glyph glyph-name="plus" unicode="&#59001;" d="M507 799c-19.3 0-35-15.7-35-35v-345H127c-19.3 0-35-15.7-35-35s15.7-35 35-35h345v-345c0-19.3 15.7-35 35-35s35 15.7 35 35V764c0 19.3-15.7 35-35 35zM922 384c0-19.3-15.7-35-35-35H657c-19.3 0-35 15.7-35 35s15.7 35 35 35h230c19.3 0 35-15.7 35-35z"  horiz-adv-x="1024" />

    
    <glyph glyph-name="chenggong_hover" unicode="&#59003;" d="M164.718533 424.04438386h128.55628063c6.48995186 0 11.737147-5.24719513 11.737147-11.73714699v-356.39501642c0-6.48995186-5.24719513-11.737147-11.737147-11.737147h-128.55628063c-6.48995186 0-11.737147 5.24719513-11.73714698 11.737147V412.30723687c0 6.48995186 5.24719513 11.737147 11.73714698 11.73714699zM284.16126419 9.792136949999986h-110.46726582c-19.05560336 0-34.52102059 15.46541722-34.52102059 34.52102058V424.04438386c0 19.05560336 15.46541722 34.52102059 34.52102059 34.52102059h110.46726582c19.05560336 0 34.52102059-15.46541722 34.52102058-34.52102059v-379.73122633c0-19.05560336-15.46541722-34.52102059-34.52102058-34.52102058z m-103.56306172 41.42522468h96.65885762V417.14017975h-96.65885762v-365.92281812zM692.61397965 11.03489368999999H402.7754909c-10.63247434 0-19.33177153 8.28504494-19.33177153 18.64135111s8.5612131 18.64135111 19.33177153 18.64135111h286.3863867c1.10467265 0.13808409 2.20934532 0.27616816 3.45210205 0.27616818 20.57452827 0 39.0777953 9.94205392 49.57218554 26.51214379 7.45654045 18.08901478 86.44063553 210.44014143 101.76796868 265.94994252 13.80840823 49.71026963-16.84625804 100.93946416-68.35162075 114.19553607-7.18037229 1.79509307-15.18924905 2.76168163-24.9932189 2.76168165l-115.99062913 0.41425223c-6.35186779 0-12.28948332 3.0378498-15.87966947 8.00887679-3.59018613 5.10911105-4.41869063 11.46097883-2.20934531 17.26051027 11.32289475 28.58340503 17.9509307 95.83035312 17.95093069 179.78547517 0 30.93083443-25.95980747 55.92405333-57.85723048 55.92405333-32.03550709 0-57.85723049-25.13130297-57.85723049-55.92405333V644.97891555c0-123.44716958-103.97731397-223.83429742-231.84317418-223.83429742-10.63247434 0-19.33177153 8.28504494-19.33177154 18.64135112s8.5612131 18.64135111 19.33177154 18.6413511c106.60091154 0 193.17963114 83.67895387 193.17963113 186.41351112v18.64135111c0 51.36727861 43.35840185 93.20675555 96.65885762 93.20675555s96.65885762-41.83947694 96.65885761-93.20675555c0-44.32499042-1.93317715-118.47614261-13.11798782-167.91024407l90.44507392-0.27616817c13.11798782 0 24.30279849-1.24275675 34.93527282-4.00443839 72.07989097-18.64135111 115.02404057-90.30698983 95.69226903-159.90136731-16.57008987-60.06657581-100.11095967-262.9120927-103.70114579-271.47330581-0.27616816-0.8285045-0.8285045-1.65700898-1.24275675-2.3474294-16.43200579-27.47873238-46.67241982-44.87732675-79.81259958-46.25816756-1.38084082-0.13808409-2.62359757-0.27616816-4.00443839-0.27616818z"  horiz-adv-x="1024" />

    
    <glyph glyph-name="yanzhengshenfen_hover" unicode="&#59004;" d="M461.59930996 357.76402435c56.75255783 0 102.87264132 51.64344678 102.8726413 115.30020874S518.35186779 588.3644418 461.59930996 588.3644418 358.72666864 536.7209950199999 358.72666864 473.06423309s46.12008349-115.30020874 102.87264132-115.30020874zM555.49648592 317.30538824999996c11.04672658-8.28504494 19.6079397-12.56565149 31.89742302-18.22709886 7.18037229-3.1759339 21.67920092-0.96658859 26.51214381 10.90864249 5.79953147 14.36074457-4.83294288 26.78831197-15.74158539 35.21144099-14.7749968 11.59906291-33.69251609 25.8217234-50.53877412 33.69251608 10.35630617 8.00887677 19.46985561 17.81284661 27.20256421 28.58340503 45.98199941 64.0710142 33.96868425 155.48267668-27.20256421 203.81210549-61.17124846 48.46751289-148.02613623 35.76377732-193.87005155-28.58340504-46.12008349-64.0710142-33.96868425-155.48267668 27.06448011-203.81210548-75.53199303-34.79718875-124.13758998-113.22894749-124.13758998-199.94575117 0-13.53224006 10.08013802-24.30279849 22.6457895-24.30279848 12.70373557 0 22.78387358 10.63247434 22.78387358 23.75046215 0.69042042 94.4495123 72.90839547 170.39575757 162.24879671 170.39575757 28.85957319 0 57.30489415-8.42312903 82.02194489-24.30279849 0 0.13808409 7.18037229-5.3852792 9.11354942-7.18037228zM367.01171358 495.84810667c0 54.12896027 43.91073817 98.03969843 98.03969843 98.03969843s98.03969843-43.91073817 98.03969844-98.03969843-43.91073817-98.03969843-98.03969844-98.03969844-98.03969843 43.91073817-98.03969843 98.03969844zM750.47121013 308.05375473000004c-4.83294288 0-9.52780169-1.93317715-12.97990373-5.3852792l-104.11539805-103.56306174-38.93971121 38.80162713c-7.18037229 6.76612003-18.36518295 6.76612003-25.54555522 0-7.31845635-7.04228819-7.59462453-18.7794352-0.55233634-26.09789155l52.05769902-51.64344679c7.18037229-7.31845635 18.91751926-7.18037229 26.09789156 0l116.95721771 116.68104956c3.45210207 3.45210207 5.3852792 8.14696086 5.38527922 12.84181965 0 4.83294288-1.93317715 9.52780169-5.38527922 12.84181964-3.45210207 3.59018613-8.14696086 5.5233633-12.97990374 5.5233633zM512-71.67747161c-48.74368105 0-143.19319334 32.44975935-229.63382887 94.58759638-46.8105039 33.69251609-85.33596286 71.52755463-114.47170423 112.67661117-34.52102059 48.60559698-54.81938068 100.663296-60.34274397 154.37800401l-0.13808408 1.10467265V700.21254847l1.93317715 4.14252248c1.65700898 3.59018613 8.5612131 15.74158539 28.0310687 19.33177152h0.27616817c1.79509307 0.27616816 4.28060655 0.69042042 16.01775355-0.27616816l1.10467266-0.13808409 1.10467265-0.27616815c6.2137837-1.24275675 11.04672658-2.3474294 14.9130809-3.17593391 11.18481067-2.48551348 15.32733314-3.45210207 30.79275034-3.45210206 59.79040765 0 107.98175235 2.62359757 148.71655665 15.32733315 41.2871406 12.97990373 74.28923629 35.9018614 106.73899563 74.15115218 9.94205392 20.2983601 31.34508668 33.69251609 54.40512842 33.6925161 23.19812583 0 44.60115858-13.39415599 54.40512843-33.6925161 64.89951868-76.4985816 132.69880309-89.47848533 258.90765432-89.47848533 17.81284661 0.13808409 30.24041403 2.3474294 44.60115858 4.97102697 2.89976573 0.55233633 5.93761554 1.10467265 8.97546537 1.657009 7.18037229 1.65700898 19.6079397 3.0378498 28.99765728-4.28060657 5.93761554-4.55677472 9.25163351-11.46097883 9.2516335-19.05560335v-408.59079955l-0.13808408-0.96658857c-5.10911105-53.99087618-23.88854624-105.77240705-55.50980108-153.96375176-27.47873238-41.83947694-63.9329301-79.81259957-108.39600462-113.09086341-38.80162713-28.99765728-82.57428122-53.30045577-126.62310347-70.14671381-41.97756103-16.01775355-81.33152447-24.57896666-113.9193679-24.57896666zM148.83886354 293.27875792c4.97102697-46.25816757 22.78387358-91.2735784 52.88620352-133.66539167 26.51214381-37.42078631 61.7235848-72.07989097 104.80581847-103.01072539 58.5476509-42.1156451 150.51164972-86.85488777 205.46911447-86.85488777 49.71026963 0 135.59856882 26.78831197 215.68733657 86.5787196 40.59672019 30.3784981 73.73689995 64.89951868 98.59203475 102.59647316 27.75490053 42.1156451 44.18690634 87.26914001 48.74368106 134.217728V680.4665247c-14.49882864-2.62359757-29.54999362-5.3852792-50.26260596-5.38527921h-0.13808408c-64.0710142 0-116.2667973 2.89976573-162.80113304 17.2605103-50.67685821 15.6035013-91.82591473 43.91073817-129.66095329 89.34040124l-2.07126123 2.48551349-1.24275674 2.89976573c-2.62359757 6.48995186-10.08013802 11.32289475-17.67476254 11.32289475-7.45654045 0-14.7749968-4.69485881-17.53667845-11.32289475l-1.24275675-2.89976573-2.07126122-2.48551349c-37.97312263-45.42966308-78.56984283-73.73689995-127.86586022-89.20231717-45.70583125-14.36074457-97.4873621-17.26051028-161.14412404-17.26051028-19.33177153 0.13808409-26.51214381 1.51892491-39.76821571 4.55677472-3.59018613 0.8285045-7.7327086 1.65700898-12.84181964 2.76168163h-0.1380841v-389.25902801z"  horiz-adv-x="1024" />

    
    <glyph glyph-name="zhongzhimima" unicode="&#59005;" d="M871.43286624 568.2041657899999c-13.11798782 0-21.95536909 8.97546534-21.95536909 22.36962134v134.217728c0 13.53224006 8.69929718 22.36962133 21.95536909 22.36962133s21.95536909-8.97546534 21.95536908-22.36962133v-134.217728c-0.13808409-13.53224006-8.83738127-22.36962133-21.95536908-22.36962134zM682.1195894 345.61262511999996c0 36.5922818-29.96424587 66.55652767-66.4184436 66.55652768H416.16964688c-36.5922818 0-66.41844358-29.96424587-66.41844358-66.55652768v-99.97287559c0-36.5922818 29.96424587-66.55652767 66.41844358-66.55652766H615.56306173c36.5922818 0 66.41844358 29.96424587 66.41844359 66.55652766v99.97287559zM615.56306173 158.37060951H416.16964688c-48.05326064 0-87.13105594 39.21587937-87.13105593 87.26914002v99.97287559c0 48.19134474 39.0777953 87.26914001 87.13105593 87.26914002H615.56306173c48.05326064 0 87.13105594-39.21587937 87.13105593-87.26914002v-99.97287559c0.13808409-48.05326064-39.0777953-87.26914001-87.13105593-87.26914002zM416.16964688 391.59462453c-25.26938706 0-45.70583125-20.57452827-45.70583123-45.84391534v-99.97287557c0-25.26938706 20.57452827-45.84391532 45.70583123-45.84391534H615.56306173c25.26938706 0 45.70583125 20.57452827 45.70583125 45.84391534v99.97287557c0 25.26938706-20.57452827 45.84391532-45.70583125 45.84391534H416.16964688zM735.69621333 560.47145718c-13.67032415 0-22.64578949 8.97546534-22.64578949 22.50770542s8.97546534 22.50770542 22.64578949 22.50770541h136.15090516c13.67032415 0 22.64578949-8.97546534 22.6457895-22.50770541s-8.97546534-22.50770542-22.6457895-22.50770542H735.69621333zM512.69042042-38.537291849999974C280.70916213-38.537291849999974 90.84354898 151.32832132 90.84354898 383.30957958S280.70916213 805.15645102 512.69042042 805.15645102c135.0462325 0 261.53125188-63.24250969 341.62001961-173.01935512 8.42312903-8.42312903 4.14252247-21.12686459-4.14252246-29.54999362s-21.12686459-4.14252247-29.54999362 4.14252247c-71.66563872 96.93502578-185.58500661 156.035013-307.92750353 156.03501301-210.85439369 0-379.59314225-168.73874859-379.59314227-379.59314226s168.73874859-379.59314225 379.59314227-379.59314225 379.59314225 168.73874859 379.59314225 379.59314225c0 12.70373557 8.42312903 21.12686459 21.12686458 21.1268646 12.70373557 0 21.12686459-8.42312903 21.1268646-21.1268646C934.53729185 151.32832132 744.67167868-38.537291849999974 512.69042042-38.537291849999974zM417.13623547 412.30723687c-11.87523108 0-19.74602377 7.7327086-19.74602377 19.4698556v77.74133835c0 66.00419135 55.371717 116.68104955 118.47614261 116.68104953 67.108864 0 118.47614261-54.40512843 118.47614261-116.68104953 0-11.737147-7.87079269-19.46985561-19.74602377-19.46985562-11.87523108 0-19.74602377 7.7327086-19.74602376 19.46985562 0 42.80606551-35.62569324 77.74133834-78.98409508 77.74133833-43.49648592 0-78.98409508-35.07335691-78.98409508-77.74133833v-77.74133835c0-11.59906291-7.87079269-19.46985561-19.74602376-19.4698556"  horiz-adv-x="1024" />

    
    <glyph glyph-name="zuzhi_hover" unicode="&#59006;" d="M506.4766367 240.3925544h-75.94624527c-11.32289475 0-20.43644418 8.83738127-20.43644418 19.74602377s9.11354943 19.74602377 20.43644418 19.74602376h75.94624527c11.32289475 0 20.43644418-8.83738127 20.43644419-19.74602376 0.13808409-10.90864251-8.97546534-19.74602377-20.43644419-19.74602377m-164.5962261 0h-75.94624527c-11.32289475 0-20.43644418 8.83738127-20.43644418 19.74602377s9.25163351 19.74602377 20.43644418 19.74602376h75.94624527c11.32289475 0 20.43644418-8.83738127 20.43644418-19.74602376 0.13808409-10.90864251-9.11354943-19.74602377-20.43644418-19.74602377M506.4766367 416.58784341h-75.94624527c-11.32289475 0-20.43644418 8.83738127-20.43644418 19.74602379 0 11.04672658 9.11354943 19.74602377 20.43644418 19.74602377h75.94624527c11.32289475 0 20.43644418-8.83738127 20.43644419-19.74602377 0.13808409-10.77055842-8.97546534-19.74602377-20.43644419-19.74602379m-164.5962261 0h-75.94624527c-11.32289475 0-20.43644418 8.83738127-20.43644418 19.74602379 0 11.04672658 9.25163351 19.74602377 20.43644418 19.74602377h75.94624527c11.32289475 0 20.43644418-8.83738127 20.43644418-19.74602377 0.13808409-10.77055842-9.11354943-19.74602377-20.43644418-19.74602379m345.76254209-229.63382886v73.3226477c0 10.90864251 9.25163351 19.74602377 20.43644418 19.74602378 11.32289475 0 20.43644418-8.83738127 20.43644418-19.74602378v-73.3226477c0-10.90864251-9.11354943-19.74602377-20.43644418-19.74602377-11.32289475-0.13808409-20.43644418 8.69929718-20.43644418 19.74602377m0 198.2887422V458.56540445c0 10.90864251 9.25163351 19.74602377 20.43644418 19.74602376 11.32289475 0 20.43644418-8.83738127 20.43644418-19.74602376v-73.3226477c0-10.90864251-9.11354943-19.74602377-20.43644418-19.74602377-11.32289475 0-20.43644418 8.97546534-20.43644418 19.74602377M506.4766367 592.92121653h-75.94624527c-11.32289475 0-20.43644418 8.83738127-20.43644418 19.74602377 0 11.04672658 9.11354943 19.74602377 20.43644418 19.74602376h75.94624527c11.32289475 0 20.43644418-8.83738127 20.43644419-19.74602376 0.13808409-10.77055842-8.97546534-19.74602377-20.43644419-19.74602377m-164.5962261 0h-75.94624527c-11.32289475 0-20.43644418 8.83738127-20.43644418 19.74602377 0 11.04672658 9.25163351 19.74602377 20.43644418 19.74602376h75.94624527c11.32289475 0 20.43644418-8.83738127 20.43644418-19.74602376 0.13808409-10.77055842-9.11354943-19.74602377-20.43644418-19.74602377M888.96954469 26.500310910000053H122.32671973c-11.32289475 0-20.43644418 8.83738127-20.43644418 19.74602377s9.25163351 19.74602377 20.43644418 19.74602377H888.96954469c11.32289475 0 20.43644418-8.83738127 20.43644418-19.74602377s-9.11354943-19.74602377-20.43644418-19.74602377M147.45802272 65.02576986999998V747.85155687c0 33.14017975 27.47873238 60.06657581 61.44741663 60.06657581h349.76698047c33.96868425 0 61.44741663-26.92639605 61.44741663-60.06657581v-669.431631c0-11.18481067-9.11354943-20.16027601-20.57452827-20.16027602s-20.57452827 8.97546534-20.57452827 20.16027602V747.85155687c0 10.90864251-9.11354943 19.74602377-20.29836009 19.74602377H208.90543935c-11.18481067 0-20.2983601-8.97546534-20.2983601-19.74602377V65.02576986999998H147.45802272z m472.66181373 538.52792099h186.96584743c33.41634791 0 60.61891214-27.06448014 60.61891213-60.34274396v-487.29872645c0-11.04672658-8.97546534-20.16027601-20.16027601-20.16027602s-20.2983601 9.11354943-20.2983601 20.16027602V543.2109469c0 11.04672658-8.97546534 19.88410785-20.16027602 19.88410785H620.11983645V603.55369086zM607.2780168 118.74047789999997a158.93477873 157.55393792 90 1 1 315.1078758 0 158.93477873 157.55393792 90 1 1-315.1078758 0ZM764.8319547-74.85340549c-105.91049113 0-192.07495849 86.85488777-192.07495849 193.45579929S658.92146357 312.19627719000005 764.8319547 312.19627719000005c105.91049113 0 192.07495849-86.85488777 192.07495848-193.45579929s-86.16446736-193.5938834-192.07495848-193.59388339z m0 352.52866212C677.97706693 277.67525663000004 607.2780168 206.28578607999998 607.2780168 118.74047789999997s70.69905013-158.93477873 157.5539379-158.93477873c86.85488777 0 157.55393792 71.38947055 157.5539379 158.93477873S851.68684247 277.67525663000004 764.8319547 277.67525663000004zM699.24201561 138.07224942000005c-5.5233633 6.2137837-14.49882864 6.2137837-20.16027603 0s-5.5233633-16.29392172 0-22.64578951l77.05091793-86.57871961 117.23338589 131.73221453c5.5233633 6.2137837 5.5233633 16.29392172 0 22.6457895-5.5233633 6.2137837-14.49882864 6.2137837-20.16027603 0l-97.07310986-109.08642502-56.8906419 63.93293011z"  horiz-adv-x="1024" />

    
    <glyph glyph-name="chenggong" unicode="&#59007;" d="M159.05708563 440.61447375h139.74109129c7.04228819 0 12.70373557-5.66144737 12.70373558-12.70373558v-387.46393494c0-7.04228819-5.66144737-12.70373557-12.70373558-12.70373558H159.05708563c-7.04228819 0-12.70373557 5.66144737-12.70373556 12.70373558V427.91073817c0 7.04228819 5.66144737 12.70373557 12.70373556 12.70373558zM785.54456705 491.29133195c-10.63247434 2.76168163-21.67920092 4.00443838-34.93527283 4.00443839l-90.44507392 0.27616817c11.18481067 49.43410147 13.11798782 123.58525366 13.11798784 167.91024407 0 51.36727861-43.35840185 93.20675555-96.65885762 93.20675555s-96.65885762-41.83947694-96.65885761-93.20675555V644.97891555c0-102.73455724-86.57871961-186.41351111-193.17963115-186.4135111h-0.13808407c-0.8285045 0-1.79509307 0.13808409-2.62359757 0.13808408h-110.46726585c-19.05560336 0-34.52102059-15.46541722-34.52102058-34.52102058v-379.73122633c0-19.05560336 15.46541722-34.52102059 34.52102058-34.52102059h110.46726585c19.05560336 0 34.52102059 15.46541722 34.52102057 34.52102059V423.35396347c112.81469525 15.05116498 200.08383525 108.67217277 200.08383526 221.76303618v18.6413511c0 30.79275037 25.95980747 55.92405333 57.85723048 55.92405334 32.03550709 0 57.85723049-24.9932189 57.85723049-55.92405334 0-83.95512204-6.76612003-151.20207013-17.9509307-179.78547517-2.20934532-5.79953147-1.51892491-12.15139925 2.20934532-17.26051028 3.59018613-4.97102697 9.52780169-8.00887677 15.87966946-8.00887677l115.99062913-0.41425224c9.80396985 0 17.81284661-0.96658859 24.9932189-2.76168166 51.5053627-13.2560719 82.16002898-64.62335052 68.35162075-114.19553606-15.46541722-55.50980109-94.4495123-247.99901182-101.76796866-265.94994252-10.49439025-16.57008987-28.99765728-26.51214381-49.57218555-26.5121438-1.24275675 0-2.3474294-0.13808409-3.45210206-0.27616816H402.7754909c-10.63247434 0-19.33177153-8.28504494-19.33177153-18.64135111s8.5612131-18.64135111 19.33177153-18.64135111h289.83848875c1.24275675 0 2.62359757 0.13808409 3.86635431 0.27616816 33.14017975 1.38084082 63.38059378 18.7794352 79.81259957 46.25816757 0.41425225 0.69042042 0.8285045 1.51892491 1.24275674 2.3474294 3.59018613 8.5612131 86.99297185 211.40673002 103.70114582 271.4733058 19.33177153 69.31820932-23.61237808 140.98384803-95.69226904 159.62519915zM277.25706009 51.21736163000003h-96.65885762V417.14017975h96.65885762v-365.92281812z"  horiz-adv-x="1024" />

    
    <glyph glyph-name="zhongzhimima_hover" unicode="&#59008;" d="M871.43286624 568.2041657899999c-13.11798782 0-21.95536909 8.97546534-21.95536909 22.36962134v134.217728c0 13.53224006 8.69929718 22.36962133 21.95536909 22.36962133s21.95536909-8.97546534 21.95536908-22.36962133v-134.217728c-0.13808409-13.53224006-8.83738127-22.36962133-21.95536908-22.36962134zM682.1195894 345.61262511999996c0 36.5922818-29.96424587 66.55652767-66.4184436 66.55652768H416.16964688c-36.5922818 0-66.41844358-29.96424587-66.41844358-66.55652768v-99.97287559c0-36.5922818 29.96424587-66.55652767 66.41844358-66.55652766H615.56306173c36.5922818 0 66.41844358 29.96424587 66.41844359 66.55652766v99.97287559zM615.56306173 158.37060951H416.16964688c-48.05326064 0-87.13105594 39.21587937-87.13105593 87.26914002v99.97287559c0 48.19134474 39.0777953 87.26914001 87.13105593 87.26914002H615.56306173c48.05326064 0 87.13105594-39.21587937 87.13105593-87.26914002v-99.97287559c0.13808409-48.05326064-39.0777953-87.26914001-87.13105593-87.26914002zM416.16964688 391.59462453c-25.26938706 0-45.70583125-20.57452827-45.70583123-45.84391534v-99.97287557c0-25.26938706 20.57452827-45.84391532 45.70583123-45.84391534H615.56306173c25.26938706 0 45.70583125 20.57452827 45.70583125 45.84391534v99.97287557c0 25.26938706-20.57452827 45.84391532-45.70583125 45.84391534H416.16964688zM735.69621333 560.47145718c-13.67032415 0-22.64578949 8.97546534-22.64578949 22.50770542s8.97546534 22.50770542 22.64578949 22.50770541h136.15090516c13.67032415 0 22.64578949-8.97546534 22.6457895-22.50770541s-8.97546534-22.50770542-22.6457895-22.50770542H735.69621333zM512.69042042-38.537291849999974C280.70916213-38.537291849999974 90.84354898 151.32832132 90.84354898 383.30957958S280.70916213 805.15645102 512.69042042 805.15645102c135.0462325 0 261.53125188-63.24250969 341.62001961-173.01935512 8.42312903-8.42312903 4.14252247-21.12686459-4.14252246-29.54999362s-21.12686459-4.14252247-29.54999362 4.14252247c-71.66563872 96.93502578-185.58500661 156.035013-307.92750353 156.03501301-210.85439369 0-379.59314225-168.73874859-379.59314227-379.59314226s168.73874859-379.59314225 379.59314227-379.59314225 379.59314225 168.73874859 379.59314225 379.59314225c0 12.70373557 8.42312903 21.12686459 21.12686458 21.1268646 12.70373557 0 21.12686459-8.42312903 21.1268646-21.1268646C934.53729185 151.32832132 744.67167868-38.537291849999974 512.69042042-38.537291849999974zM417.13623547 412.30723687c-11.87523108 0-19.74602377 7.7327086-19.74602377 19.4698556v77.74133835c0 66.00419135 55.371717 116.68104955 118.47614261 116.68104953 67.108864 0 118.47614261-54.40512843 118.47614261-116.68104953 0-11.737147-7.87079269-19.46985561-19.74602377-19.46985562-11.87523108 0-19.74602377 7.7327086-19.74602376 19.46985562 0 42.80606551-35.62569324 77.74133834-78.98409508 77.74133833-43.49648592 0-78.98409508-35.07335691-78.98409508-77.74133833v-77.74133835c0-11.59906291-7.87079269-19.46985561-19.74602376-19.4698556"  horiz-adv-x="1024" />

    
    </font>
</defs>
</svg>
